<svg width="54" height="54" viewBox="0 0 54 54" fill="none" xmlns="http://www.w3.org/2000/svg">
<g clip-path="url(#clip0_1030_18)">
<path d="M20.9401 50C30.2959 50 37.8802 42.3848 37.8802 32.991C37.8802 31.9797 37.7923 30.989 37.6238 30.0261H23.893C20.4597 30.0261 17.6764 32.8207 17.6764 36.268H32.1331C30.7216 41.1366 26.2447 44.6944 20.9401 44.6944C14.5027 44.6944 9.28407 39.4546 9.28407 32.991C9.28407 27.3816 13.2145 22.6938 18.4611 21.5528V16.1629C10.2805 17.3673 4 24.4428 4 32.991C4 42.3848 11.5844 50 20.9401 50Z" fill="#428358"/>
<path d="M33.2326 21.2876H27V17.1026C29.3832 18.0196 31.5076 19.4616 33.2326 21.2876Z" fill="#428358"/>
<path fill-rule="evenodd" clip-rule="evenodd" d="M30.5389 22.2811L41.8492 22.2812L49.9998 30.4292V41.7365H49.0018V30.4292H48.0038V41.7365H47.0057V30.4292H45.8414V41.7365H44.8433V30.4292H43.8453V41.7365H42.8473V30.4292H41.6829V41.7365H40.6848V30.4292H39.6868V41.7365H38.6888V30.4292L31.9196 23.6622L26.7124 28.9099V29.7545H23.696C21.6828 29.7545 19.8888 30.7543 18.7281 32.3131V9.58415C18.7281 9.30864 18.5033 9.08486 18.2277 9.08844C15.0478 9.12971 13.6055 9.58096 13.2473 10.658C13.1428 10.9722 12.8192 11.1977 12.5132 11.0711C11.0828 10.4792 10.3433 9.80071 9.47251 8.67611C9.27127 8.41623 9.38255 8.03771 9.69129 7.9248C18.0652 4.86212 27.26 4.89662 35.6111 8.02266C35.9106 8.13477 36.0237 8.49911 35.8291 8.75281C35.0085 9.82242 34.1797 10.4174 32.8504 11.0267C32.5392 11.1693 32.1926 10.9434 32.0633 10.6265C31.6577 9.63253 30.2428 9.13689 27.2126 9.08912C26.937 9.08478 26.7124 9.30863 26.7124 9.58414V26.142L30.5389 22.2811ZM22.7202 10.9738C23.547 10.9738 24.2173 10.3038 24.2173 9.47725C24.2173 8.65072 23.547 7.98068 22.7202 7.98068C21.8934 7.98068 21.2232 8.65072 21.2232 9.47725C21.2232 10.3038 21.8934 10.9738 22.7202 10.9738Z" fill="#428358"/>
<path d="M26.7124 41.7365H18.7281V36.503H26.7124V41.7365Z" fill="#428358"/>
</g>
<defs>
<clipPath id="clip0_1030_18">
<rect width="46" height="46" fill="white" transform="translate(4 4)"/>
</clipPath>
</defs>
</svg>
