<svg width="54" height="54" viewBox="0 0 54 54" fill="none" xmlns="http://www.w3.org/2000/svg">
<g clip-path="url(#clip0_512_272)">
<path d="M20.9401 50C30.2959 50 37.8802 42.3848 37.8802 32.991C37.8802 31.9797 37.7923 30.989 37.6238 30.0261H23.893C20.4597 30.0261 17.6764 32.8207 17.6764 36.268H32.1331C30.7216 41.1366 26.2447 44.6944 20.9401 44.6944C14.5027 44.6944 9.28407 39.4546 9.28407 32.991C9.28407 27.3816 13.2145 22.6938 18.4611 21.5528V16.1629C10.2805 17.3673 4 24.4428 4 32.991C4 42.3848 11.5844 50 20.9401 50Z" fill="#428358"/>
<path d="M33.2326 21.2876H27V17.1026C29.3832 18.0196 31.5076 19.4616 33.2326 21.2876Z" fill="#428358"/>
<path fill-rule="evenodd" clip-rule="evenodd" d="M30.539 22.2811L41.8493 22.2812L50 30.4292V41.7365H49.0019V30.4292H48.0039V41.7365H47.0059V30.4292H45.8415V41.7365H44.8434V30.4292H43.8454V41.7365H42.8474V30.4292H41.683V41.7365H40.685V30.4292H39.6869V41.7365H38.6889V30.4292L31.9198 23.6622L26.7125 28.9099V29.7545H23.6961C21.6829 29.7545 19.889 30.7543 18.7282 32.3131V9.58415C18.7282 9.30864 18.5034 9.08486 18.2278 9.08844C15.0479 9.12971 13.6056 9.58096 13.2474 10.658C13.1429 10.9722 12.8193 11.1977 12.5133 11.0711C11.0829 10.4792 10.3434 9.80071 9.47263 8.67611C9.2714 8.41623 9.38267 8.03771 9.69141 7.9248C18.0653 4.86212 27.2601 4.89662 35.6112 8.02266C35.9107 8.13477 36.0238 8.49911 35.8292 8.75281C35.0086 9.82242 34.1798 10.4174 32.8505 11.0267C32.5393 11.1693 32.1927 10.9434 32.0634 10.6265C31.6579 9.63253 30.2429 9.13689 27.2127 9.08912C26.9371 9.08478 26.7125 9.30863 26.7125 9.58414V26.142L30.539 22.2811ZM22.7203 10.9738C23.5471 10.9738 24.2174 10.3038 24.2174 9.47725C24.2174 8.65072 23.5471 7.98068 22.7203 7.98068C21.8935 7.98068 21.2233 8.65072 21.2233 9.47725C21.2233 10.3038 21.8935 10.9738 22.7203 10.9738Z" fill="#428358"/>
<path d="M26.7125 41.7365H18.7282V36.503H26.7125V41.7365Z" fill="#428358"/>
</g>
<defs>
<clipPath id="clip0_512_272">
<rect width="46" height="46" fill="white" transform="translate(4 4)"/>
</clipPath>
</defs>
</svg>
