<svg width="128" height="128" viewBox="0 0 128 128" fill="none" xmlns="http://www.w3.org/2000/svg">
<path d="M106.822 104.139V92.038V89.2455V77.1447V75.7773L106.823 28.7413H104.031V59.4588H91.9279V44.5655H89.1354V74.3522H77.0355V66.9055H74.243V75.7773L74.2439 89.2455H62.143V75.283H59.3505V89.2455L59.3496 104.139H56.558V96.6922H47.2124V39.9113H74.2439V44.5636H72.3822V47.3561H74.2439V51.9051L74.229 51.9032C74.0782 53.4624 72.7834 54.638 71.2187 54.638C69.5497 54.638 68.1935 53.2809 68.1935 51.6128C68.1935 51.0301 68.3591 50.4642 68.6747 49.9755L66.3271 48.4629C65.7221 49.404 65.4019 50.493 65.4019 51.6128C65.4019 54.8205 68.011 57.4305 71.2196 57.4305C74.2299 57.4305 76.7199 55.1695 77.0103 52.1732L75.3469 52.0121H77.0355V47.357H78.9223V44.5645H77.0355V39.9113H77.9663V37.1188H76.3643L47.2124 27.2724V20.3638H31.4246V26.8796H30.1326L17.5747 37.1188H17.462V37.21L17.4546 37.2165L17.462 37.2258V39.9113H31.4246H31.4255V96.6922H22.1171V104.139H17.462V106.931H59.3496H74.2439H77.0364H91.9288H110.546V104.139H106.822ZM34.218 41.893L43.961 51.6361L34.218 61.3791V41.893ZM34.2171 29.6721H44.4199V37.1188H34.2171V29.6721ZM44.4199 71.8855L36.0406 63.5061L44.4199 55.1258V71.8855ZM44.4199 48.1473L36.1848 39.9113H44.4199V48.1473ZM34.218 65.6312L43.4351 74.8483L34.218 84.0654V65.6312ZM44.4199 77.8121V94.5727L36.0396 86.1933L44.4199 77.8121ZM67.6387 37.1188H47.2124V30.2194L67.6387 37.1188ZM34.2171 23.1563H44.4199V26.8796H34.2171V23.1563ZM21.9924 37.1188L31.1267 29.6712H31.4236V37.1188H21.9924ZM34.218 88.3203L42.5899 96.6922H34.218V88.3203ZM24.9096 99.4847H53.7655V104.139H24.9096V99.4847ZM104.03 104.139H91.9288V92.038H104.03V104.139ZM104.03 89.2455H91.9288V77.1447H104.03V89.2455ZM91.9288 62.2513H104.03V74.3522H91.9288V62.2513ZM77.0364 77.1447H89.1363V89.2455H77.0364V77.1447ZM62.1421 104.139V92.038H74.2439V104.139H62.1421ZM77.0364 92.038H89.1363V104.139H77.0364V92.038Z" fill="#F7F9FC"/>
</svg>
