<svg width="128" height="128" viewBox="0 0 128 128" fill="none" xmlns="http://www.w3.org/2000/svg">
<path fill-rule="evenodd" clip-rule="evenodd" d="M56.3741 66.3618H72.6424C73.7655 66.3618 74.6759 67.2755 74.6759 68.4027V106.159C74.6759 107.286 73.7655 108.2 72.6424 108.2H56.3741C55.251 108.2 54.3406 107.286 54.3406 106.159V68.4027C54.3406 67.2755 55.251 66.3618 56.3741 66.3618ZM70.4055 69.4231H58.611C57.9371 69.4231 57.3909 69.9714 57.3909 70.6476V103.914C57.3909 104.59 57.9371 105.139 58.611 105.139H70.4055C71.0794 105.139 71.6256 104.59 71.6256 103.914V70.6476C71.6256 69.9714 71.0794 69.4231 70.4055 69.4231Z" fill="#F7F9FC"/>
<path fill-rule="evenodd" clip-rule="evenodd" d="M19.7704 81.6684C18.6473 81.6684 17.7368 82.5822 17.7368 83.7093V106.159C17.7368 107.286 18.6473 108.2 19.7704 108.2H34.0052C35.1283 108.2 36.0387 107.286 36.0387 106.159V83.7093C36.0387 82.5822 35.1283 81.6684 34.0052 81.6684H19.7704ZM31.7683 84.7298H22.0073C21.3334 84.7298 20.7872 85.278 20.7872 85.9543V103.914C20.7872 104.59 21.3334 105.139 22.0073 105.139H31.7683C32.4421 105.139 32.9884 104.59 32.9884 103.914V85.9543C32.9884 85.278 32.4421 84.7298 31.7683 84.7298Z" fill="#F7F9FC"/>
<path fill-rule="evenodd" clip-rule="evenodd" d="M92.9778 46.9734H109.246C110.369 46.9734 111.28 47.8871 111.28 49.0142V106.159C111.28 107.286 110.369 108.2 109.246 108.2H92.9778C91.8547 108.2 90.9443 107.286 90.9443 106.159V49.0143C90.9443 47.8871 91.8547 46.9734 92.9778 46.9734ZM107.009 50.0347H95.2147C94.5408 50.0347 93.9946 50.5829 93.9946 51.2592V103.914C93.9946 104.59 94.5408 105.139 95.2147 105.139H107.009C107.683 105.139 108.229 104.59 108.229 103.914V51.2592C108.229 50.5829 107.683 50.0347 107.009 50.0347Z" fill="#F7F9FC"/>
<path d="M66.3882 36.2721H68.7498V39.2016H64.1221L64.0506 39.348L67.9149 45.5976C68.6941 46.8834 69.0837 47.9738 69.0837 48.8689C69.0837 50.5127 68.551 51.717 67.4855 52.482H66.3644V54.5814H63.8359V52.482H61.1642V49.6501H66.2213L66.2928 49.5036L61.8799 42.4973C61.2597 41.4882 60.9496 40.5605 60.9496 39.7142C60.9496 38.0216 61.6413 36.8742 63.0248 36.2721H63.8597V34.1726H66.3882V36.2721Z" fill="#F7F9FC"/>
<path fill-rule="evenodd" clip-rule="evenodd" d="M80.9153 44.4275C80.9153 52.9855 73.8559 59.9231 65.1477 59.9231C56.4394 59.9231 49.38 52.9855 49.38 44.4275C49.38 35.8695 56.4394 28.9318 65.1477 28.9318C73.8559 28.9318 80.9153 35.8695 80.9153 44.4275ZM65.0166 57.1778C72.036 57.1778 77.7263 51.4669 77.7263 44.4223C77.7263 37.3776 72.036 31.6667 65.0166 31.6667C57.9973 31.6667 52.307 37.3776 52.307 44.4223C52.307 51.4669 57.9973 57.1778 65.0166 57.1778Z" fill="#F7F9FC"/>
<path d="M51.1545 51.5604C41.0022 56.1617 29.6742 60.0589 15.8138 63.8183C15.0006 64.0388 14.5196 64.8792 14.7394 65.6953C14.9591 66.5113 15.7964 66.9941 16.6096 66.7736C30.7949 62.9261 42.4166 58.917 52.872 54.1401C52.2165 53.3411 51.6402 52.4772 51.1545 51.5604Z" fill="#F7F9FC"/>
<path d="M78.2996 35.8903C78.8725 36.7404 79.3623 37.6487 79.7578 38.6037C87.4066 33.2107 95.1136 26.9721 103.62 19.5818L106.912 22.8329C107.511 23.424 108.525 23.0733 108.634 22.2376L109.863 12.789C109.95 12.1178 109.374 11.5489 108.707 11.6474L99.3131 13.0337C98.4823 13.1563 98.1494 14.1796 98.7479 14.7706L101.439 17.4278C93.1602 24.6134 85.6818 30.6649 78.2996 35.8903Z" fill="#F7F9FC"/>
<path d="M11.6362 113.302H116.364V116.364H11.6362V113.302Z" fill="#F7F9FC"/>
</svg>
