<svg width="128" height="129" viewBox="0 0 128 129" fill="none" xmlns="http://www.w3.org/2000/svg">
<path d="M53.3631 45.3757H51.7231V42.3039H58.7049L65.4056 36.0285H73.84V39.1004H66.7411L60.0638 45.3757H53.3631ZM52.6134 94.1743H50.9734V91.1024H59.3141L66.0148 97.3778H72.7623V100.45H64.6559L57.9552 94.1743H52.6134ZM18.5009 48.9742H12.714L15.1037 42.2819V37.0817L11.6362 35.8091L34.4326 27.4712L57.2055 35.8091L46.5219 39.7147V46.4289L45.983 46.6922C46.6156 50.3346 45.2802 53.8672 42.5858 56.3247L48.7711 58.6725C52.262 60.0109 54.4174 63.1486 54.2534 66.6812L53.3866 84.7832H47.1076L44.179 115.809H24.6393L21.7341 84.7832H15.4551L14.5883 66.6812C14.4243 63.1486 16.5563 60.0109 20.0706 58.6725L26.2559 56.3247C23.5616 53.8672 22.2261 50.3126 22.8587 46.6703L22.3198 46.407V39.7147L18.3838 38.2885V42.3039L20.7735 48.9961H18.5009V48.9742ZM24.4518 37.2134C24.5221 37.2353 24.5924 37.2573 24.6393 37.2792L34.4091 40.8557L48.1853 35.8091L34.4091 30.7625L20.6095 35.8091L24.4518 37.2134ZM25.5764 40.8996V44.5639C31.7851 47.4602 37.4315 47.2188 43.2184 44.5419V40.8996L34.3857 44.125L25.5764 40.8996ZM42.8436 48.0746C37.3378 50.181 31.7851 50.3346 25.9513 48.0965C25.7639 52.6385 29.6062 56.3466 34.3857 56.3466C39.2121 56.3466 43.0544 52.6385 42.8436 48.0746ZM32.7691 90.5319V88.996H36.0492V112.737H41.1801L43.9447 83.2034V70.0603H47.2248V81.7333H50.2471L50.9734 66.5715C51.0905 64.3334 49.7551 62.3806 47.5293 61.5468L39.3526 58.4311C36.2132 59.7915 32.5817 59.7915 29.4656 58.4311L21.2889 61.5468C19.0632 62.4026 17.7512 64.3334 17.8449 66.5715L18.5712 81.7333H21.5935V70.0603H24.8736V83.2034L27.6616 112.737H32.7925V90.5319H32.7691ZM61.0947 65.4086H59.4547V62.3367H76.2298V65.4086H61.0947ZM77.2841 112.737H109.991V110.675H77.2841V112.737ZM111.654 115.809H74.004V107.603H78.0104V87.1968H95.9335V92.0679H109.265V107.603H113.271V115.809H111.654ZM100.432 105.255H98.7918V102.183H103.173V105.255H100.432ZM100.432 100.581H98.7918V97.5094H103.173V100.581H100.432ZM86.4448 105.145H84.8047V102.073H89.186V105.145H86.4448ZM86.4448 95.798H84.8047V92.7261H89.186V95.798H86.4448ZM86.4448 100.472H84.8047V97.3997H89.186V100.472H86.4448ZM106.008 95.1617H95.9569V107.603H106.008V95.1617ZM92.6534 90.2686H81.2904V107.603H92.6534V90.2686ZM89.9123 17.0708C85.3436 17.0708 83.0476 22.271 86.2808 25.299C89.514 28.327 95.0666 26.1767 95.0666 21.898C95.0666 19.2211 92.7472 17.0708 89.9123 17.0708ZM83.9613 16.3028C87.2648 13.2091 92.5832 13.231 95.8866 16.3028C99.237 19.4405 99.1667 24.5749 95.6992 27.6248C97.7375 28.2172 99.7055 29.2705 100.994 30.7625L101.369 31.1794V43.9934H78.4789V31.1794L78.8538 30.7625C80.1424 29.2705 82.1104 28.1953 84.1487 27.6248C80.6813 24.5968 80.5875 19.4625 83.9613 16.3028ZM81.759 40.9435H98.089V32.3423C96.6364 31.0039 94.1763 30.2139 92.1614 30.2139H87.7099C85.6951 30.2139 83.235 31.0039 81.7824 32.3423V40.9435H81.759ZM99.9164 52.1338H97.4564L97.2221 55.469C95.6289 55.842 94.6215 56.0394 93.122 56.8293C91.6226 57.6412 90.9197 58.3872 89.7951 59.4843L86.5854 58.0142L85.3436 60.0109L88.3191 61.854C87.8505 63.3241 87.5459 64.2237 87.5459 65.8694C87.5459 67.515 87.8739 68.4146 88.3191 69.8847L85.3436 71.7498L86.5854 73.7465L89.7951 72.2764C90.9197 73.3735 91.6226 74.1195 93.122 74.9313C94.6215 75.7432 95.6289 75.9407 97.2221 76.2917L97.4564 79.6269H99.9164L100.151 76.2917C101.744 75.9407 102.751 75.7432 104.251 74.9313C105.75 74.1195 106.453 73.3735 107.578 72.2764L110.787 73.7465L112.006 71.7498L109.054 69.9067C109.522 68.4366 109.827 67.5369 109.827 65.8913C109.827 64.2457 109.499 63.3461 109.054 61.876L112.006 60.0329L110.787 58.0361L107.578 59.5062C106.453 58.4092 105.75 57.6631 104.251 56.8513C102.751 56.0394 101.744 55.842 100.151 55.4909L99.9164 52.1338ZM95.9335 49.062H102.986L103.267 53.0773C105.118 53.6478 106.805 54.5693 108.234 55.7761L112.076 53.9989L116.364 60.9544L112.802 63.1705C113.201 64.9478 113.201 66.769 112.802 68.5463L116.364 70.7843L112.076 77.7399L108.234 75.9626C106.781 77.1694 105.094 78.069 103.267 78.6614L102.986 82.6548H94.3872L94.106 78.6614C92.2551 78.091 90.5683 77.1694 89.1391 75.9626L85.2968 77.7399L81.0093 70.7843L84.5705 68.5682C84.1722 66.7909 84.1722 64.9698 84.5705 63.1925L81.0093 60.9544L85.2968 53.9989L89.1391 55.7761C90.5917 54.5693 92.2786 53.6697 94.106 53.0773L94.3872 49.062H95.9335ZM98.6981 60.6692C93.7546 60.6692 91.2711 66.2863 94.762 69.5556C98.253 72.8249 104.251 70.4991 104.251 65.8694C104.251 62.995 101.744 60.6692 98.6981 60.6692ZM92.4426 60.0329C95.8866 56.8074 101.486 56.8074 104.93 60.0329C108.374 63.2583 108.374 68.5024 104.93 71.7278C101.486 74.9533 95.8866 74.9533 92.4426 71.7278C88.9985 68.5024 88.9985 63.2583 92.4426 60.0329Z" fill="#F7F9FC"/>
</svg>
