<svg width="128" height="128" viewBox="0 0 128 128" fill="none" xmlns="http://www.w3.org/2000/svg">
<path d="M115.766 29.0491L99.0953 14.9784C98.7655 14.6996 98.3373 14.5454 97.8935 14.5454C97.4496 14.5454 97.0215 14.6996 96.6916 14.9784L80.0205 29.0491C79.7499 29.2775 79.5596 29.5774 79.4744 29.9094C79.3893 30.2414 79.4134 30.5899 79.5436 30.9087C79.6738 31.2276 79.9039 31.5019 80.2036 31.6955C80.5033 31.8891 80.8585 31.9928 81.2223 31.993H88.201V43.9604C86.2095 43.4233 84.1186 43.2926 82.0688 43.5771V40.2135C82.0688 39.766 81.8794 39.3368 81.5423 39.0204C81.2052 38.704 80.7479 38.5262 80.2712 38.5262H64.4736C63.9969 38.5262 63.5396 38.704 63.2025 39.0204C62.8654 39.3368 62.676 39.766 62.676 40.2135V81.1532C60.9597 82.909 59.4975 84.8695 58.3273 86.9841H56.5529V51.0625C56.5529 50.6149 56.3636 50.1856 56.0265 49.869C55.6894 49.5524 55.2322 49.3743 54.7553 49.374H38.9578C38.4809 49.3743 38.0236 49.5524 37.6866 49.869C37.3495 50.1856 37.1601 50.6149 37.1601 51.0625V86.9841H31.037V61.1886C31.037 60.7408 30.8475 60.3113 30.5101 59.9946C30.1728 59.678 29.7152 59.5001 29.2381 59.5001H13.4457C13.2086 59.4988 12.9736 59.5415 12.7541 59.6258C12.5347 59.7101 12.3352 59.8343 12.167 59.9912C11.9989 60.1481 11.8654 60.3347 11.7744 60.5402C11.6833 60.7457 11.6365 60.966 11.6365 61.1886V88.6738C11.6366 88.8962 11.6836 89.1165 11.7748 89.3218C11.8659 89.5272 11.9994 89.7136 12.1675 89.8704C12.3356 90.0272 12.5351 90.1513 12.7544 90.2355C12.9738 90.3197 13.2087 90.3624 13.4457 90.3611H56.739C55.7339 92.9902 55.1621 95.748 55.0435 98.5391C55.0339 98.7663 55.0733 98.9929 55.1593 99.2055C55.2454 99.418 55.3762 99.612 55.5441 99.7759C55.712 99.9399 55.9134 100.07 56.1363 100.159C56.3591 100.248 56.5989 100.294 56.8411 100.294H68.4217C68.861 103.916 70.7049 107.259 73.6018 109.686C76.4988 112.113 80.2462 113.454 84.1294 113.454C88.0127 113.454 91.7601 112.113 94.657 109.686C97.554 107.259 99.3979 103.916 99.8371 100.294H111.416C111.659 100.294 111.898 100.248 112.121 100.159C112.344 100.07 112.546 99.9399 112.713 99.7759C112.881 99.612 113.012 99.418 113.098 99.2055C113.184 98.9929 113.224 98.7663 113.214 98.5391C112.995 93.0864 111.034 87.8216 107.587 83.4276V31.9967H114.566C114.93 31.9965 115.285 31.8927 115.585 31.6992C115.884 31.5056 116.114 31.2312 116.245 30.9124C116.375 30.5935 116.399 30.2451 116.314 29.9131C116.229 29.5811 116.038 29.2811 115.768 29.0527L115.766 29.0491ZM15.2395 86.9841V62.8771H27.4405V86.9841H15.2395ZM40.7567 86.9841V52.7498H52.9563V86.9841H40.7567ZM95.8761 57.8347C95.8761 60.0157 95.1871 62.1477 93.8961 63.9611C92.6052 65.7745 90.7703 67.1879 88.6235 68.0226C86.4767 68.8572 84.1145 69.0756 81.8355 68.6501C79.5564 68.2246 77.463 67.1744 75.82 65.6322C74.1769 64.09 73.0579 62.1251 72.6046 59.986C72.1513 57.8469 72.384 55.6297 73.2732 53.6147C74.1624 51.5997 75.6683 49.8775 77.6003 48.6658C79.5324 47.4541 81.8038 46.8073 84.1275 46.8073C87.2425 46.8102 90.229 47.973 92.4316 50.0404C94.6343 52.1077 95.873 54.9109 95.8761 57.8347ZM84.1275 72.3069C83.4322 72.3069 82.7512 72.3566 82.0688 72.4015V72.091C84.1152 72.3741 86.2024 72.2435 88.1906 71.7077V72.6004C86.8451 72.4146 85.4875 72.3165 84.1275 72.3069ZM78.4722 41.902V44.4578C75.6143 45.5185 73.1622 47.3613 71.4343 49.7467C69.7064 52.1322 68.7824 54.9501 68.7824 57.8347C68.7824 60.7192 69.7064 63.5372 71.4343 65.9226C73.1622 68.308 75.6143 70.1508 78.4722 71.2116V72.8224C74.0276 73.6383 69.849 75.4219 66.2726 78.0298V41.902H78.4722ZM84.1275 110.072C81.7102 110.072 79.3471 109.4 77.337 108.139C75.327 106.879 73.7603 105.088 72.8351 102.991C71.91 100.895 71.6678 98.5886 72.1394 96.3633C72.6109 94.138 73.7749 92.0939 75.4842 90.4895C77.1935 88.8852 79.3713 87.7926 81.7422 87.35C84.1131 86.9074 86.5706 87.1347 88.8038 88.0031C91.0371 88.8715 92.9458 90.342 94.2887 92.2286C95.6315 94.1152 96.3481 96.3333 96.3478 98.6022C96.3451 101.644 95.0568 104.56 92.7658 106.711C90.4747 108.862 87.368 110.072 84.1275 110.076V110.072ZM99.8436 96.9173C99.8048 96.6019 99.7415 96.2938 99.6833 95.9833C99.6575 95.8511 99.6433 95.7164 99.6149 95.5854C99.5115 95.1197 99.3861 94.6599 99.2362 94.2111C99.2091 94.1262 99.1703 94.0449 99.1406 93.96C99.0113 93.5961 98.8821 93.2407 98.7231 92.8914C98.6559 92.7398 98.5745 92.5942 98.5009 92.445C98.3716 92.1709 98.2346 91.8979 98.0834 91.6335C97.9917 91.471 97.887 91.3145 97.7875 91.1556C97.6376 90.913 97.489 90.6704 97.3261 90.4423C97.2124 90.281 97.0883 90.127 96.9682 89.9705C96.8027 89.7522 96.6347 89.5362 96.4512 89.3276C96.322 89.1736 96.1798 89.0244 96.0403 88.8752C95.8567 88.6774 95.6719 88.4821 95.4781 88.2941C95.3295 88.1498 95.1757 88.0103 95.0193 87.872C94.8203 87.6925 94.6161 87.5178 94.4067 87.348C94.2422 87.217 94.0755 87.0888 93.9066 86.9635C93.6908 86.8022 93.4698 86.6481 93.2449 86.4977C93.0679 86.3764 92.8908 86.266 92.7086 86.1544C92.476 86.0125 92.2382 85.8791 91.9978 85.7493C91.8104 85.6474 91.6243 85.5467 91.4318 85.4521C91.1837 85.3308 90.9291 85.218 90.6732 85.1076C90.4767 85.0239 90.2855 84.939 90.0839 84.865C89.8164 84.7631 89.5437 84.6746 89.2684 84.5848C89.0707 84.5205 88.8742 84.4526 88.6726 84.3956C88.3806 84.3119 88.082 84.2464 87.7835 84.1797C87.5897 84.1372 87.3958 84.0863 87.2033 84.0499C86.8698 83.988 86.5312 83.9455 86.1901 83.9043C86.0208 83.8837 85.8541 83.8521 85.6835 83.8364C85.1665 83.7891 84.6496 83.7624 84.1223 83.7624C83.5951 83.7624 83.0742 83.7891 82.5612 83.8364C82.3893 83.8521 82.2226 83.8837 82.0533 83.9043C81.7134 83.9455 81.3735 83.988 81.0401 84.0499C80.845 84.0863 80.6524 84.1372 80.4611 84.1797C80.1626 84.2464 79.8628 84.3119 79.572 84.3956C79.3691 84.4526 79.174 84.5169 78.975 84.5848C78.701 84.6746 78.427 84.7631 78.1608 84.865C77.9605 84.9426 77.7731 85.0275 77.5715 85.1076C77.313 85.218 77.0545 85.3296 76.8116 85.4521C76.6203 85.5467 76.4329 85.6474 76.2455 85.7493C76.0052 85.8791 75.7674 86.0125 75.5348 86.1544C75.3538 86.266 75.1755 86.3804 74.9997 86.4977C74.7736 86.6481 74.5539 86.8022 74.3368 86.9635C74.1644 87.088 73.9982 87.2162 73.8379 87.348C73.6273 87.5178 73.4244 87.6925 73.2241 87.872C73.069 88.0103 72.9152 88.1498 72.7666 88.2941C72.5727 88.4821 72.3866 88.6774 72.2031 88.8752C72.0648 89.0244 71.9253 89.1736 71.7922 89.3276C71.6138 89.5362 71.4471 89.7522 71.2752 89.9705C71.155 90.127 71.0323 90.281 70.9185 90.4423C70.7557 90.674 70.6058 90.9154 70.4559 91.1556C70.3577 91.3145 70.253 91.471 70.1599 91.6335C70.01 91.8979 69.8769 92.1709 69.7438 92.445C69.6701 92.5942 69.5887 92.7398 69.5202 92.8914C69.3651 93.2407 69.2307 93.5986 69.1028 93.96C69.0731 94.0449 69.0356 94.1262 69.0072 94.2111C68.8585 94.6599 68.7332 95.1197 68.6298 95.5854C68.6001 95.7164 68.5859 95.8511 68.5613 95.9833C68.5019 96.2938 68.4385 96.6019 68.4011 96.9173H58.777C59.488 91.0744 62.4646 85.6812 67.1397 81.7658C71.8147 77.8504 77.8613 75.6864 84.1269 75.6864C90.3925 75.6864 96.439 77.8504 101.114 81.7658C105.789 85.6812 108.766 91.0744 109.477 96.9173H99.8436ZM105.788 28.6161C105.311 28.6161 104.854 28.794 104.516 29.1106C104.179 29.4273 103.989 29.8567 103.989 30.3046V79.6334C100.536 76.6147 96.348 74.4347 91.7911 73.2833V70.2957C94.1265 69.0367 96.0668 67.2216 97.4161 65.0337C98.7653 62.8458 99.4758 60.3626 99.4758 57.8347C99.4758 55.3067 98.7653 52.8235 97.4161 50.6356C96.0668 48.4477 94.1265 46.6327 91.7911 45.3736V30.3046C91.7911 29.8567 91.6015 29.4273 91.2642 29.1106C90.9268 28.794 90.4692 28.6161 89.9921 28.6161H85.9045L97.8883 18.5082L109.872 28.6161H105.788ZM82.9204 95.7795C82.9208 96.0821 83.049 96.3723 83.277 96.5863C83.505 96.8003 83.8141 96.9206 84.1366 96.921C84.2585 96.9205 84.3802 96.9319 84.4997 96.9549C85.5631 97.0268 86.5706 97.4296 87.3627 98.0995C88.1547 98.7694 88.686 99.6682 88.8725 100.654C89.0589 101.639 88.8899 102.654 88.3921 103.539C87.8943 104.424 87.0962 105.128 86.1242 105.539V106.35C86.1306 106.575 86.0889 106.799 86.0014 107.009C85.9139 107.22 85.7825 107.411 85.6148 107.573C85.4472 107.734 85.2468 107.863 85.0254 107.95C84.804 108.038 84.5662 108.083 84.3259 108.083C84.0856 108.083 83.8477 108.038 83.6263 107.95C83.405 107.863 83.2045 107.734 83.0369 107.573C82.8693 107.411 82.7378 107.22 82.6504 107.009C82.5629 106.799 82.5212 106.575 82.5276 106.35V105.675C81.593 105.365 80.7833 104.792 80.2098 104.033C79.6362 103.274 79.3268 102.367 79.3239 101.437C79.3364 100.997 79.5314 100.579 79.8673 100.272C80.2032 99.9654 80.6534 99.7937 81.1222 99.7937C81.5909 99.7937 82.0412 99.9654 82.377 100.272C82.7129 100.579 82.9079 100.997 82.9204 101.437C82.9202 101.663 82.9913 101.884 83.1248 102.071C83.2582 102.259 83.4481 102.406 83.6703 102.492C83.8925 102.579 84.137 102.602 84.373 102.558C84.609 102.514 84.8258 102.405 84.996 102.246C85.1662 102.086 85.2821 101.883 85.3292 101.661C85.3762 101.44 85.3522 101.21 85.2602 101.002C85.1682 100.793 85.0123 100.615 84.8123 100.489C84.6123 100.364 84.3771 100.297 84.1366 100.297C84.0145 100.297 83.8928 100.285 83.7734 100.262C82.6721 100.193 81.6299 99.7691 80.8237 99.0616C80.0174 98.3541 79.4968 97.4065 79.3501 96.3797C79.2034 95.353 79.4397 94.3102 80.0189 93.4283C80.598 92.5464 81.4844 91.8797 82.5276 91.5413V90.8657C82.5402 90.4259 82.7351 90.008 83.071 89.7011C83.4069 89.3942 83.8571 89.2225 84.3259 89.2225C84.7946 89.2225 85.2449 89.3942 85.5807 89.7011C85.9166 90.008 86.1116 90.4259 86.1242 90.8657V91.6735C86.9644 92.0308 87.6774 92.6074 88.1781 93.3346C88.6788 94.0618 88.946 94.9088 88.9479 95.7747C88.9544 96.0001 88.9126 96.2245 88.8251 96.4346C88.7376 96.6447 88.6062 96.8361 88.4386 96.9977C88.271 97.1594 88.0706 97.2878 87.8492 97.3755C87.6278 97.4632 87.3899 97.5084 87.1496 97.5084C86.9093 97.5084 86.6715 97.4632 86.4501 97.3755C86.2287 97.2878 86.0283 97.1594 85.8607 96.9977C85.693 96.8361 85.5616 96.6447 85.4741 96.4346C85.3866 96.2245 85.3449 96.0001 85.3513 95.7747C85.341 95.4785 85.2085 95.1978 84.9817 94.9917C84.7549 94.7856 84.4516 94.6704 84.1359 94.6704C83.8202 94.6704 83.5169 94.7856 83.2901 94.9917C83.0633 95.1978 82.9307 95.4785 82.9204 95.7747V95.7795Z" fill="#F7F9FC"/>
</svg>
