<svg width="128" height="129" viewBox="0 0 128 129" fill="none" xmlns="http://www.w3.org/2000/svg">
<path d="M24.1039 68.2246H17.4546V108.121H24.1039C25.9402 108.121 27.4286 106.632 27.4286 104.796V71.5493C27.4286 69.713 25.9402 68.2246 24.1039 68.2246Z" fill="#F7F9FC"/>
<path d="M106.736 72.671C104.335 71.2362 101.425 71.1745 98.9677 72.5022L77.196 84.2059C76.6877 88.306 73.2218 91.4995 68.9872 91.4995H55.6219C54.7031 91.4995 53.9596 90.7562 53.9596 89.8376C53.9596 88.9188 54.7031 88.1755 55.6219 88.1755H68.9872C71.7372 88.1755 73.9742 85.9387 73.9742 83.1891C73.9742 80.4916 71.8177 78.3007 69.1398 78.2181C68.1447 78.2065 52.0781 78.2027 52.0781 78.2027L46.4028 72.5282C45.7794 71.905 44.9336 71.5543 44.0521 71.5543H30.7534V104.803H36.6235L47.3768 108.121C51.8443 109.557 56.6227 111.445 61.9174 111.445C66.7047 111.445 71.4222 109.858 75.4937 106.738L107.156 85.7828C109.278 84.3285 110.546 81.9263 110.546 79.3618C110.546 76.5925 109.122 74.0929 106.736 72.671Z" fill="#F7F9FC"/>
<path d="M40.727 68.2244H54.0257V48.2764H37.4023V64.8997C37.4023 66.736 38.8908 68.2244 40.727 68.2244Z" fill="#F7F9FC"/>
<path d="M97.2472 64.8997V48.2764H80.6238V68.2244H93.9225C95.7587 68.2244 97.2472 66.736 97.2472 64.8997Z" fill="#F7F9FC"/>
<path d="M77.2991 21.6792C77.2991 19.8429 75.8107 18.3545 73.9745 18.3545H60.6757C58.8395 18.3545 57.3511 19.8429 57.3511 21.6792V31.6532H77.2991V21.6792Z" fill="#F7F9FC"/>
<path d="M77.2991 34.978H57.3511V68.2248H77.2991V34.978ZM67.3251 49.9391C70.9907 49.9391 73.9745 52.9212 73.9745 56.5884C73.9745 59.6781 71.8466 62.2583 68.9874 63.0016V63.2378C68.9874 64.1566 68.2439 64.9001 67.3251 64.9001C66.4063 64.9001 65.6628 64.1566 65.6628 63.2378V63.0016C62.8036 62.2583 60.6757 59.6781 60.6757 56.5884C60.6757 55.6696 61.4193 54.9261 62.3381 54.9261C63.2569 54.9261 64.0004 55.6696 64.0004 56.5884C64.0004 58.4212 65.4907 59.9131 67.3251 59.9131C69.1595 59.9131 70.6498 58.4212 70.6498 56.5884C70.6498 54.7556 69.1595 53.2637 67.3251 53.2637C63.6595 53.2637 60.6757 50.2816 60.6757 46.6144C60.6757 43.5247 62.8036 40.9445 65.6628 40.2012V39.965C65.6628 39.0462 66.4063 38.3027 67.3251 38.3027C68.2439 38.3027 68.9874 39.0462 68.9874 39.965V40.2012C71.8466 40.9445 73.9745 43.5247 73.9745 46.6144C73.9745 47.5332 73.2309 48.2767 72.3121 48.2767C71.3933 48.2767 70.6498 47.5332 70.6498 46.6144C70.6498 44.7816 69.1595 43.2897 67.3251 43.2897C65.4907 43.2897 64.0004 44.7816 64.0004 46.6144C64.0004 48.4472 65.4907 49.9391 67.3251 49.9391Z" fill="#F7F9FC"/>
<path d="M54.0257 31.6533L37.4023 44.952H54.0257V31.6533Z" fill="#F7F9FC"/>
<path d="M80.6238 31.6533V44.952H97.2472L80.6238 31.6533Z" fill="#F7F9FC"/>
</svg>
