<svg width="128" height="129" viewBox="0 0 128 129" fill="none" xmlns="http://www.w3.org/2000/svg">
<path d="M121.584 80.1418C120.106 76.5901 115.599 74.5568 111.26 75.6291V54.8364C114.122 54.4603 116.32 52.345 116.32 49.8379V43.2882C116.32 40.5148 113.642 38.2585 110.354 38.2585H96.4656C97.74 36.9109 98.479 35.203 98.479 33.354C98.479 28.951 94.2494 25.3786 89.0779 25.3786H84.0175C80.9147 25.3786 78.1628 26.6478 76.4633 28.622C74.7643 26.6478 71.9938 25.3786 68.9096 25.3786H63.8493C58.6593 25.3786 54.4481 28.951 54.4481 33.354C54.4481 35.203 55.1869 36.9109 56.4429 38.2585H44.3824L46.5246 36.4565C48.2793 34.968 48.2793 32.5549 46.5246 31.0663L43.9021 28.8413C43.7543 28.7159 43.6804 28.5436 43.6804 28.3713V25.2375C43.6804 23.1222 41.6675 21.4142 39.174 21.4142H35.4801C35.277 21.4142 35.074 21.3516 34.9259 21.2262L32.3036 19.0012C30.5489 17.5126 27.7047 17.5126 25.9502 19.0012L23.3459 21.2262C23.1799 21.3516 22.9763 21.4142 22.7735 21.4142H19.0796C16.6045 21.4142 14.5912 23.1222 14.5912 25.2375V28.3713C14.5912 28.5436 14.4991 28.7159 14.3513 28.8413L11.7288 31.0663C9.99228 32.5549 9.99228 34.968 11.7288 36.4565L14.3513 38.6658C14.4991 38.8069 14.5912 38.9636 14.5912 39.1516V42.2855C14.5912 44.385 16.6045 46.093 19.0796 46.093H22.7735C22.9948 46.093 23.1799 46.1713 23.3459 46.2967L25.9502 48.5217C26.8366 49.2581 27.9814 49.6343 29.1267 49.6343C30.2719 49.6343 31.4354 49.2581 32.3036 48.5217L34.9259 46.2967C35.074 46.1713 35.277 46.093 35.4801 46.093H36.6069V49.8379C36.6069 52.3606 38.8046 54.4759 41.6675 54.8364V67.4656H31.9711C31.1215 65.7419 29.1083 64.5355 26.7812 64.5355H7.49938C6.57586 64.5355 5.81836 65.1622 5.81836 65.9614V106.419C5.81836 107.202 6.57586 107.845 7.49938 107.845H26.7812C29.6811 107.845 32.0817 105.98 32.3773 103.583L54.2266 110.822C58.7661 112.306 63.5735 112.11 67.8012 110.446L115.951 91.4235C120.975 89.4335 123.394 84.5919 121.584 80.1418ZM19.1165 99.9319C17.0848 99.9319 15.4224 98.5373 15.4224 96.798C15.4224 95.0745 17.0848 93.6642 19.1165 93.6642C21.1479 93.6642 22.8101 95.0745 22.8101 96.798C22.8101 98.5373 21.1479 99.9319 19.1165 99.9319ZM55.5565 107.907L32.562 100.292V70.5994H41.6675C43.2485 70.6153 44.0749 70.5525 45.3614 70.6934C48.9074 71.0381 52.2504 72.4326 54.7619 74.6264L58.4191 77.8698C58.77 78.1675 59.2503 78.3399 59.7488 78.3399C60.0569 78.3399 75.0239 78.3399 74.2101 78.3399C77.6272 78.3399 80.416 80.7059 80.416 83.6047C80.416 86.6083 77.5149 88.8695 74.2101 88.8695H56.6273C55.6117 88.8695 54.7805 89.5746 54.7805 90.4364C54.7805 91.2981 55.6117 92.0033 56.6273 92.0033H74.2101C76.6482 92.0033 78.883 91.2512 80.6006 90.0134C80.7908 89.945 112.643 78.4822 111.758 78.7943C114.346 77.863 117.19 79.0059 118.093 81.176C119.275 84.0905 117.687 87.2713 114.381 88.5874L66.2316 107.61C62.8887 108.942 59.0099 109.036 55.5565 107.907ZM28.5541 46.2967L25.9502 44.0873C25.1004 43.3666 23.9738 42.9592 22.7735 42.9592H19.0796C18.6362 42.9592 18.2851 42.6615 18.2851 42.2855V39.1516C18.2851 38.1331 17.8052 37.1773 16.9554 36.4565L14.3513 34.2315C14.0375 33.9809 14.0375 33.542 14.3513 33.2757L16.9554 31.0663C17.8052 30.3613 18.2851 29.3741 18.2851 28.3713V25.2375C18.2851 24.8614 18.6362 24.548 19.0796 24.548H22.7735C23.9738 24.548 25.1004 24.1564 25.9502 23.4356L28.5541 21.2262C28.8683 20.9598 29.385 20.9598 29.6993 21.2262L32.3036 23.4356C33.153 24.1564 34.2798 24.548 35.4801 24.548H39.174C39.6172 24.548 39.9865 24.8614 39.9865 25.2375V28.3713C39.9865 29.3741 40.4668 30.3613 41.298 31.0663L43.9021 33.2757C44.2159 33.542 44.2159 33.9809 43.9021 34.2315L41.298 36.4565C40.5591 37.0833 40.1159 37.8824 40.0051 38.7442V38.7599C39.9865 38.8853 39.9865 39.0105 39.9865 39.1516V42.2855C39.9865 42.6615 39.6172 42.9592 39.174 42.9592H36.6254H35.4801C34.2798 42.9592 33.153 43.3666 32.3036 44.0873L29.6993 46.2967C29.385 46.5631 28.8683 46.5631 28.5541 46.2967ZM63.8493 28.5124H68.9096C71.4766 28.5124 73.6748 29.9696 74.3766 31.9595C70.7567 32.649 67.9122 35.1089 67.1549 38.1959H63.8493C60.6907 38.1959 58.1419 36.0178 58.1419 33.354C58.1419 30.6746 60.6907 28.5124 63.8493 28.5124ZM84.0175 28.5124H89.0779C92.2177 28.5124 94.7852 30.6746 94.7852 33.354C94.7852 36.0178 92.2177 38.1959 89.0779 38.1959H85.7535C85.0149 35.1089 82.1704 32.649 78.5505 31.9595C79.2523 29.9696 81.4318 28.5124 84.0175 28.5124ZM107.566 54.9304V76.8983L86.086 84.6233H84.9778V54.9304H107.566ZM67.9308 75.2061H60.5431L57.4217 72.4483C54.2266 69.6436 49.9048 67.8886 45.3614 67.5283V54.9304H67.9308V75.2061Z" fill="#F7F9FC"/>
<path d="M33.6888 38.7129C34.2615 38.3526 34.5571 37.7415 34.4461 37.1304L33.9476 34.733L35.9975 33.025C36.5333 32.5863 36.718 31.9596 36.4965 31.3798C36.2745 30.7843 35.6653 30.3769 34.9633 30.283L32.1192 29.9226L30.8446 27.7446C30.1981 26.6164 28.0741 26.6164 27.4277 27.7446L26.1533 29.9226L23.2907 30.283C22.5889 30.3769 21.9976 30.7843 21.7579 31.3798C21.536 31.9596 21.7393 32.5863 22.2564 33.025L24.3063 34.733L23.8078 37.1304C23.6973 37.7415 23.9925 38.3526 24.6022 38.7286C25.1746 39.089 25.9318 39.1203 26.5784 38.8383L29.127 37.6945L31.6756 38.8383C32.3834 39.1383 33.1156 39.0644 33.6888 38.7129Z" fill="#F7F9FC"/>
</svg>
