<svg width="200" height="200" viewBox="0 0 200 200" fill="none" xmlns="http://www.w3.org/2000/svg">
<g clip-path="url(#clip0_209_788)">
<path d="M59.3788 145.97C73.0151 149.758 85.0303 160.773 94.5 170.818C100.394 177.045 107.061 179.788 114.318 178.985C115.356 180.287 116.255 181.693 117 183.182C117.23 183.635 117.569 184.023 117.988 184.311C118.407 184.598 118.892 184.776 119.397 184.827C119.902 184.878 120.413 184.802 120.881 184.604C121.349 184.407 121.76 184.095 122.076 183.697C127.241 177.712 133.579 172.849 140.697 169.409C152.136 163.955 156.348 163.621 157.106 163.606C157.595 163.737 158.111 163.735 158.599 163.599C159.087 163.463 159.53 163.199 159.881 162.833C160.232 162.468 160.479 162.016 160.596 161.523C160.713 161.03 160.695 160.514 160.545 160.03C160.439 159.455 159.47 154.53 158.864 152.455C158.651 149.985 160.379 137.682 158.167 125.545C156.015 114.015 150.106 106.333 146.045 100.242C143.364 96.197 135.045 94.9242 132.409 96.3788C131.851 95.8816 131.241 95.4448 130.591 95.0758C126.5 92.8939 119.242 94.8788 118.894 95.0758C117.732 94.4299 116.481 93.9602 115.182 93.6818C111.629 92.8115 107.886 93.1859 104.576 94.7424L104.318 94.8333C99.6666 85.7424 92.6969 72.3485 90.0303 68.2273C84.9242 60.3485 80.4242 52.8636 71.1969 57.4091C62.5 61.6818 66.5454 72.5606 68.5 77.7273C78.0606 103.273 81.5909 116.364 81.6363 116.515C83.3333 122.455 83.3333 123.167 82.5 124.242C81.0909 124.379 77.2272 123.621 70.9697 122C59.0909 118.939 51.5151 120.864 48.4848 127.727C45.1515 134.848 48.2575 142.894 59.3788 145.97ZM53.9242 130.303C54.5757 128.894 56.5303 124.591 69.4545 127.909C80.3636 130.727 84.3788 131.242 86.6363 128.758C90.2272 124.788 89.3636 121.697 87.4697 114.909C87.4697 114.758 83.7727 101.273 74.1818 75.6364C71.2424 67.7879 71.1515 64.2121 73.8787 62.8788C78.5454 60.5758 80.5454 64.7727 84.9394 71.5606C88.8485 77.6212 103.242 106.106 103.379 106.409C103.74 107.128 104.373 107.675 105.137 107.927C105.902 108.18 106.735 108.119 107.455 107.758C108.174 107.396 108.72 106.763 108.973 105.999C109.226 105.235 109.165 104.401 108.803 103.682L107.091 100.303C109.229 99.2817 111.659 99.0457 113.955 99.6364C115.1 99.8933 116.174 100.404 117.097 101.13C118.02 101.856 118.769 102.78 119.288 103.833C119.44 104.202 119.663 104.538 119.945 104.821C120.227 105.103 120.562 105.328 120.931 105.481C121.299 105.635 121.694 105.714 122.094 105.714C122.493 105.715 122.888 105.637 123.258 105.485C123.627 105.333 123.962 105.109 124.245 104.827C124.528 104.545 124.752 104.211 124.905 103.842C125.059 103.473 125.138 103.078 125.139 102.679C125.139 102.28 125.061 101.884 124.909 101.515C124.715 101.084 124.497 100.665 124.258 100.258C127.121 99.8636 128.439 99.8939 130.955 104.061C131.321 104.656 131.882 105.106 132.542 105.334C133.203 105.563 133.922 105.557 134.578 105.316C135.234 105.075 135.787 104.615 136.143 104.014C136.499 103.412 136.635 102.706 136.53 102.015C138.181 102.063 139.773 102.636 141.076 103.652C142.758 106.182 150.167 115.258 152.288 126.727C154.697 139.606 152.182 151.061 153.106 154.121C153.333 154.909 153.697 156.485 154.015 158C148.526 159.393 143.21 161.395 138.167 163.97C131.523 167.183 125.481 171.514 120.303 176.773C117.273 172.47 115.303 172.773 114.424 172.909C108.803 173.773 103.818 171.742 98.9848 166.697C88.7575 155.848 76.0909 144.333 61.106 140.182C55.606 138.652 51.5909 135.394 53.9242 130.303Z" fill="#D4D3D7"/>
<path d="M169.697 163.242C170.501 163.242 171.272 162.923 171.84 162.355C172.408 161.787 172.728 161.016 172.728 160.212V21.2122C172.728 20.4085 172.408 19.6377 171.84 19.0694C171.272 18.5011 170.501 18.1819 169.697 18.1819H30.3033C29.4996 18.1819 28.7288 18.5011 28.1605 19.0694C27.5922 19.6377 27.2729 20.4085 27.2729 21.2122V160.606C27.2729 161.41 27.5922 162.181 28.1605 162.749C28.7288 163.317 29.4996 163.636 30.3033 163.636H66.6669C67.4706 163.636 68.2413 163.317 68.8096 162.749C69.3779 162.181 69.6972 161.41 69.6972 160.606C69.6972 159.802 69.3779 159.032 68.8096 158.463C68.2413 157.895 67.4706 157.576 66.6669 157.576H33.3336V24.2425H166.667V160.212C166.667 161.016 166.986 161.787 167.554 162.355C168.123 162.923 168.894 163.242 169.697 163.242Z" fill="#D4D3D7"/>
<path d="M103.985 81.288C104.726 81.5943 105.559 81.5941 106.3 81.2873C107.042 80.9806 107.631 80.3924 107.939 79.6517C109.71 75.4139 110.616 70.8655 110.606 66.2729C110.604 59.8868 108.847 53.624 105.528 48.1685C102.208 42.7131 97.4531 38.2747 91.7822 35.3382C86.1113 32.4016 79.7425 31.0798 73.3714 31.5171C67.0003 31.9544 60.8718 34.134 55.6553 37.8178C50.4388 41.5016 46.3349 46.5481 43.7917 52.4059C41.2486 58.2638 40.364 64.7079 41.2345 71.0344C42.1051 77.3609 44.6973 83.3265 48.7282 88.2798C52.759 93.233 58.0734 96.9834 64.091 99.1214L64.788 99.3638C65.5419 99.579 66.3499 99.4935 67.0422 99.1254C67.7345 98.7573 68.2572 98.1353 68.5004 97.3899C68.7436 96.6445 68.6885 95.8339 68.3465 95.1283C68.0046 94.4227 67.4025 93.8772 66.6668 93.6062L66.091 93.4092C60.6691 91.4805 55.9497 87.971 52.5419 83.3337C49.1341 78.6965 47.1944 73.1443 46.973 67.3938C46.7516 61.6433 48.2588 55.9585 51.3 51.0729C54.3412 46.1874 58.7769 42.3255 64.0344 39.9856C69.292 37.6457 75.1302 36.9353 80.7955 37.946C86.4608 38.9567 91.6932 41.6421 95.8173 45.6557C99.9414 49.6693 102.768 54.8268 103.932 60.4626C105.096 66.0983 104.545 71.9537 102.349 77.2729C102.187 77.6433 102.102 78.0423 102.097 78.4462C102.093 78.8501 102.169 79.2509 102.321 79.625C102.474 79.9991 102.699 80.339 102.985 80.6245C103.271 80.9101 103.611 81.1357 103.985 81.288Z" fill="#D4D3D7"/>
<path d="M75.7577 49.606C78.2928 49.6069 80.7938 50.1892 83.0686 51.3082C85.3433 52.4272 87.331 54.053 88.8789 56.0606C89.3772 56.6915 90.1057 57.0986 90.9042 57.1924C91.7026 57.2861 92.5056 57.0589 93.1365 56.5606C93.7674 56.0623 94.1745 55.3338 94.2683 54.5353C94.3621 53.7369 94.1348 52.9339 93.6365 52.303C90.1378 47.7616 85.0521 44.7102 79.3986 43.7603C73.745 42.8104 67.9413 44.0321 63.1505 47.1806C58.3597 50.3291 54.9358 55.1718 53.5648 60.7383C52.1938 66.3047 52.9771 72.1836 55.7577 77.1969C56.1495 77.9062 56.807 78.4308 57.5856 78.6552C58.3641 78.8797 59.2 78.7857 59.9092 78.3939C60.6185 78.0021 61.1431 77.3446 61.3675 76.5661C61.592 75.7875 61.498 74.9517 61.1062 74.2424C59.7236 71.703 59.0254 68.8475 59.0802 65.9566C59.1351 63.0656 59.9411 60.2387 61.419 57.7535C62.897 55.2684 64.9961 53.2104 67.51 51.782C70.024 50.3535 72.8663 49.6036 75.7577 49.606Z" fill="#D4D3D7"/>
</g>
<defs>
<clipPath id="clip0_209_788">
<rect width="200" height="200" fill="white"/>
</clipPath>
</defs>
</svg>
