<svg width="200" height="200" viewBox="0 0 200 200" fill="none" xmlns="http://www.w3.org/2000/svg">
<g clip-path="url(#clip0_209_703)">
<path d="M134.885 185.543H63.2759C56.8629 185.543 51.6455 180.326 51.6455 173.913V26.087C51.6455 19.6739 56.8607 14.4565 63.2759 14.4565H134.882C141.296 14.4565 146.513 19.6739 146.513 26.087V173.913C146.513 180.326 141.298 185.543 134.885 185.543ZM63.2759 19.2392C59.4999 19.2392 56.4281 22.3109 56.4281 26.087V173.913C56.4281 177.689 59.4999 180.761 63.2759 180.761H134.882C138.659 180.761 141.73 177.689 141.73 173.913V26.087C141.73 22.3109 138.659 19.2392 134.882 19.2392H63.2759Z" fill="#428358"/>
<path d="M105.431 28.4783H92.7263C91.4067 28.4783 90.335 27.4066 90.335 26.087C90.335 24.7674 91.4045 23.6957 92.7263 23.6957H105.431C106.75 23.6957 107.822 24.7674 107.822 26.087C107.822 27.4066 106.75 28.4783 105.431 28.4783Z" fill="#428358"/>
<path d="M99.0783 175.163C93.374 175.163 88.7349 170.522 88.7349 164.817C88.7349 159.111 93.374 154.47 99.0783 154.47C104.785 154.47 109.426 159.111 109.426 164.817C109.426 170.52 104.785 175.163 99.0783 175.163ZM99.0783 159.252C96.0131 159.252 93.5153 161.748 93.5153 164.817C93.5153 167.885 96.0109 170.38 99.0783 170.38C102.148 170.38 104.646 167.885 104.646 164.817C104.646 161.748 102.148 159.252 99.0783 159.252Z" fill="#428358"/>
<path d="M99.6652 114.348C98.3457 114.348 97.2739 113.276 97.2739 111.957V84.4196C97.2739 83.1001 98.3435 82.0283 99.6652 82.0283C100.987 82.0283 102.057 83.1001 102.057 84.4196V111.957C102.054 113.276 100.985 114.348 99.6652 114.348Z" fill="#428358"/>
<path d="M99.661 116.885C98.9697 116.885 98.3088 116.585 97.8545 116.061L88.1067 104.828C87.2436 103.83 87.348 102.32 88.3458 101.454C89.3414 100.587 90.848 100.693 91.7197 101.691L99.6067 110.778L106.983 101.746C107.815 100.726 109.322 100.567 110.346 101.406C111.37 102.241 111.522 103.748 110.685 104.772L101.513 116.004C101.068 116.55 100.402 116.872 99.698 116.883C99.6827 116.885 99.6741 116.885 99.661 116.885Z" fill="#428358"/>
<path d="M99.3891 128.252C83.9565 128.252 71.4043 115.698 71.4043 100.267C71.4043 84.8369 83.9565 72.2826 99.3891 72.2826C114.822 72.2826 127.374 84.8369 127.374 100.267C127.374 115.698 114.82 128.252 99.3891 128.252ZM99.3891 76.6304C86.3565 76.6304 75.7521 87.2326 75.7521 100.267C75.7521 113.302 86.3565 123.904 99.3891 123.904C112.422 123.904 123.026 113.302 123.026 100.267C123.026 87.2326 112.422 76.6304 99.3891 76.6304Z" fill="#428358"/>
</g>
<defs>
<clipPath id="clip0_209_703">
<rect width="200" height="200" fill="white"/>
</clipPath>
</defs>
</svg>
