<svg width="200" height="200" viewBox="0 0 200 200" fill="none" xmlns="http://www.w3.org/2000/svg">
<g clip-path="url(#clip0_209_938)">
<path d="M18.1816 44.4325V161.098C18.1816 170.839 25.3715 177.377 36.0885 177.377H164.692C166.184 177.377 167.405 176.156 167.405 174.664V109.548H161.979V171.951H36.0885C30.0653 171.951 23.608 169.102 23.608 161.098C23.608 153.094 30.6079 150.246 37.1737 150.246H39.8869C41.3791 150.246 42.6001 149.025 42.6001 147.533V47.1457H161.979V66.1378H167.405V44.4325C167.405 42.9403 166.184 41.7194 164.692 41.7194H42.6001V25.4405C42.6001 23.9482 41.3791 22.7273 39.8869 22.7273H37.1737C26.1583 22.7273 18.1816 31.8435 18.1816 44.4325ZM37.1737 28.1536V144.819C31.6118 144.819 26.918 146.393 23.608 149.133V44.4325C23.608 34.8551 29.1971 28.1536 37.1737 28.1536Z" fill="#D4D3D7"/>
<path d="M184.01 68.5252C180.944 65.4594 175.572 65.4594 172.506 68.5252L120.712 120.319C120.522 120.509 120.386 120.699 120.251 120.916L111.541 136.68H65.6618C58.9332 136.68 53.4526 142.16 53.4526 148.889C53.4526 155.618 58.9332 161.098 65.6618 161.098H86.0105V155.672H65.6618C61.9177 155.672 58.879 152.633 58.879 148.889C58.879 145.145 61.9177 142.106 65.6618 142.106H113.142C113.603 142.106 114.037 141.998 114.444 141.78L131.592 132.312C131.809 132.203 132.026 132.04 132.188 131.85L183.983 80.0561C187.157 76.8818 187.157 71.7268 183.983 68.5524L184.01 68.5252ZM128.634 127.726L120.061 132.474L124.809 123.901L164.828 83.8817L168.653 87.7073L128.634 127.726ZM180.157 76.2035L172.479 83.8817L168.653 80.0561L176.332 72.3779C177.363 71.3469 179.153 71.3469 180.157 72.3779C181.215 73.436 181.215 75.1453 180.157 76.2035Z" fill="#D4D3D7"/>
<path d="M91.4365 93.2691V120.401C91.4365 121.893 92.6574 123.114 94.1497 123.114H107.715C109.208 123.114 110.429 121.893 110.429 120.401V106.835H121.281C122.773 106.835 123.994 105.614 123.994 104.122V93.2691C123.994 91.7768 122.773 90.5559 121.281 90.5559H94.1497C92.6574 90.5559 91.4365 91.7768 91.4365 93.2691ZM96.8628 95.9822H118.568V101.409H107.715C106.223 101.409 105.002 102.629 105.002 104.122V117.687H96.8628V95.9822Z" fill="#D4D3D7"/>
<path d="M137.561 79.7036C139.053 79.7036 140.274 78.4827 140.274 76.9904V55.2852C140.274 53.7929 139.053 52.572 137.561 52.572H110.429C108.937 52.572 107.716 53.7929 107.716 55.2852V76.9904C107.716 78.4827 108.937 79.7036 110.429 79.7036H137.561ZM113.142 57.9983H134.847V74.2773H113.142V57.9983Z" fill="#D4D3D7"/>
<path d="M96.8629 52.572H53.4524C51.9602 52.572 50.7393 53.7929 50.7393 55.2852V93.2694C50.7393 94.7616 51.9602 95.9825 53.4524 95.9825H83.2971C84.7894 95.9825 86.0103 94.7616 86.0103 93.2694V85.1299H96.8629C98.3552 85.1299 99.5761 83.909 99.5761 82.4167V55.2852C99.5761 53.7929 98.3552 52.572 96.8629 52.572ZM94.1498 79.7036H83.2971C81.8049 79.7036 80.584 80.9245 80.584 82.4167V90.5562H56.1656V57.9983H94.1498V79.7036Z" fill="#D4D3D7"/>
<path d="M96.8628 155.672H91.4365V161.098H96.8628V155.672Z" fill="#D4D3D7"/>
<path d="M50.7393 120.401C50.7393 121.893 51.9602 123.114 53.4524 123.114H83.2971C84.7894 123.114 86.0103 121.893 86.0103 120.401V106.835C86.0103 105.343 84.7894 104.122 83.2971 104.122H53.4524C51.9602 104.122 50.7393 105.343 50.7393 106.835V120.401ZM56.1656 109.549H80.584V117.688H56.1656V109.549Z" fill="#D4D3D7"/>
<path d="M137.56 136.68C136.068 136.68 134.847 137.901 134.847 139.393V150.246H123.994C122.502 150.246 121.281 151.467 121.281 152.959V163.812C121.281 165.304 122.502 166.525 123.994 166.525H151.126C152.618 166.525 153.839 165.304 153.839 163.812V139.393C153.839 137.901 152.618 136.68 151.126 136.68H137.56ZM148.413 161.099H126.708V155.672H137.56C139.052 155.672 140.273 154.451 140.273 152.959V142.106H148.413V161.099Z" fill="#D4D3D7"/>
</g>
<defs>
<clipPath id="clip0_209_938">
<rect width="200" height="200" fill="white"/>
</clipPath>
</defs>
</svg>
