<svg width="200" height="200" viewBox="0 0 200 200" fill="none" xmlns="http://www.w3.org/2000/svg">
<g clip-path="url(#clip0_209_956)">
<path d="M166.91 162.717V143.809V139.446V120.538V118.402L166.911 44.908H162.548V92.9041H143.637V69.6333H139.274V116.175H120.368V104.54H116.005V118.402L116.006 139.446H97.0986V117.629H92.7354V139.446L92.7339 162.717H88.3721V151.081H73.7696V62.3611H116.006V69.6304H113.097V73.9937H116.006V81.1014L115.983 81.0985C115.747 83.5347 113.724 85.3717 111.279 85.3717C108.672 85.3717 106.552 83.2511 106.552 80.6448C106.552 79.7343 106.811 78.85 107.304 78.0864L103.636 75.723C102.691 77.1934 102.191 78.8951 102.191 80.6448C102.191 85.6567 106.267 89.7349 111.281 89.7349C115.984 89.7349 119.875 86.2021 120.329 81.5203L117.73 81.2687H120.368V73.9951H123.316V69.6318H120.368V62.3611H121.822V57.9978H119.319L73.7696 42.6129V31.8181H49.101V41.9991H47.0823L27.4606 57.9978H27.2846V58.1404L27.2729 58.1506L27.2846 58.1651V62.3611H49.101H49.1025V151.081H34.5582V162.717H27.2846V167.08H92.7339H116.006H120.37H143.639H172.728V162.717H166.91ZM53.4658 65.4576L68.6893 80.6811L53.4658 95.9046V65.4576ZM53.4643 46.3624H69.4063V57.9978H53.4643V46.3624ZM69.4063 112.321L56.3135 99.228L69.4063 86.1338V112.321ZM69.4063 75.2299L56.539 62.3611H69.4063V75.2299ZM53.4658 102.548L67.8675 116.95L53.4658 131.352V102.548ZM69.4063 121.581V147.77L56.3121 134.677L69.4063 121.581ZM105.686 57.9978H73.7696V47.2176L105.686 57.9978ZM53.4643 36.1814H69.4063V41.9991H53.4643V36.1814ZM34.3633 57.9978L48.6356 46.361H49.0996V57.9978H34.3633ZM53.4658 138L66.5469 151.081H53.4658V138ZM38.9215 155.445H84.0088V162.717H38.9215V155.445ZM162.547 162.717H143.639V143.809H162.547V162.717ZM162.547 139.446H143.639V120.538H162.547V139.446ZM143.639 97.2674H162.547V116.175H143.639V97.2674ZM120.37 120.538H139.276V139.446H120.37V120.538ZM97.0972 162.717V143.809H116.006V162.717H97.0972ZM120.37 143.809H139.276V162.717H120.37V143.809Z" fill="#D4D3D7"/>
</g>
<defs>
<clipPath id="clip0_209_956">
<rect width="200" height="200" fill="white"/>
</clipPath>
</defs>
</svg>
