<svg width="200" height="200" viewBox="0 0 200 200" fill="none" xmlns="http://www.w3.org/2000/svg">
<g clip-path="url(#clip0_209_838)">
<path d="M148.71 102.247L169.83 81.1275C171.725 79.1293 172.764 76.47 172.727 73.7164C172.689 70.9628 171.577 68.3329 169.628 66.3874C167.679 64.4418 165.047 63.3346 162.294 63.3018C159.54 63.269 156.882 64.3132 154.888 66.2118L148.71 72.3893V27.2727H63.1497L27.2729 63.1495V175.109H148.71V102.247ZM93.7994 137.147L98.8945 142.242L91.3971 144.644L93.7994 137.147ZM103.805 139.787L96.3601 132.316L152.934 75.6364L160.379 83.1074L103.805 139.787ZM166.002 70.0397C166.493 70.5301 166.882 71.1124 167.148 71.7533C167.414 72.3943 167.55 73.0814 167.55 73.7752C167.55 74.4691 167.414 75.1561 167.148 75.7971C166.882 76.4381 166.493 77.0204 166.002 77.5107L164.127 79.3851L156.63 71.9141L158.504 70.0397C159.515 69.0777 160.857 68.5412 162.253 68.5412C163.649 68.5412 164.991 69.0777 166.002 70.0397ZM61.5922 36.2749V61.5919H36.2751L61.5922 36.2749ZM32.5528 169.829V66.8718H66.872V32.5526H143.43V77.6691L90.2883 130.811L83.2397 152.775L105.23 145.753L143.43 107.527V169.829H32.5528Z" fill="#D4D3D7"/>
<path d="M101.191 101.191H43.1128V106.471H101.191V101.191Z" fill="#D4D3D7"/>
<path d="M101.191 90.6313H43.1128V95.9112H101.191V90.6313Z" fill="#D4D3D7"/>
<path d="M90.6317 111.751H43.1128V117.031H90.6317V111.751Z" fill="#D4D3D7"/>
<path d="M80.0719 122.311H43.1128V127.59H80.0719V122.311Z" fill="#D4D3D7"/>
<path d="M80.0719 132.87H43.1128V138.15H80.0719V132.87Z" fill="#D4D3D7"/>
<path d="M66.8722 145.067V148.71C66.8869 149.805 66.6522 150.888 66.1858 151.878C66.1858 151.878 65.9746 151.878 65.4202 151.641C63.2819 150.558 61.5395 149.819 59.8763 150.558C59.6213 150.667 59.3816 150.809 59.1636 150.981C58.9524 149.476 58.9524 147.76 58.9524 146.07H53.6725C53.2804 149.428 51.6749 152.526 49.1582 154.782C47.6006 156.366 46.7558 156.392 46.5183 156.366C46.2807 156.34 45.5415 155.6 45.4623 155.442L40.7632 157.844C41.2653 158.795 41.9742 159.62 42.8378 160.26C43.7013 160.899 44.6974 161.337 45.7527 161.54C46.0777 161.566 46.4044 161.566 46.7294 161.54C47.9261 161.459 49.0948 161.141 50.1685 160.607C51.2422 160.072 52.1997 159.331 52.9861 158.425C53.6725 157.712 54.2797 157.026 54.8341 156.34C55.5732 158.636 56.55 158.98 57.1572 159.296C57.7959 159.554 58.4983 159.608 59.169 159.452C59.8397 159.296 60.4461 158.938 60.9059 158.425C61.5905 157.719 62.1446 156.896 62.5427 155.996L63.1235 156.26C64.0009 156.786 65.0045 157.064 66.0274 157.064C67.0503 157.064 68.0539 156.786 68.9313 156.26C70.3822 155.257 71.3932 153.736 71.7561 152.01C74.4466 152.975 77.2354 153.639 80.0719 153.99V148.71C76.7568 148.142 73.5037 147.258 70.3569 146.07L66.8722 145.067Z" fill="#D4D3D7"/>
<path d="M93.1134 69.7232L98.1029 72.6008L100.98 77.5902H106.762L111.751 80.4678L116.741 77.5902H122.522L125.4 72.6008L130.389 69.7232V63.9418L133.267 58.9523L130.389 53.9628V48.1813L125.4 45.3038L122.522 40.3143H116.741L111.751 37.4368L106.762 40.3143H100.98L98.1029 45.3038L93.1134 48.1813V53.9628L90.2358 58.9523L93.1134 63.9418V69.7232ZM98.3933 55.3619V51.2436L101.957 49.1581L104.043 45.5942H108.161L111.751 43.5086L115.342 45.5942H119.46L121.546 49.1581L125.109 51.2436V55.3619L127.195 58.9523L125.109 62.5426V66.6609L121.546 68.7464L119.46 72.3104H115.342L111.751 74.3959L108.161 72.3104H104.043L101.957 68.7464L98.3933 66.6609V62.5426L96.3077 58.9523L98.3933 55.3619Z" fill="#D4D3D7"/>
<path d="M111.751 69.5119C113.84 69.5119 115.881 68.8925 117.618 67.7322C119.354 66.5719 120.708 64.9227 121.507 62.9931C122.306 61.0636 122.515 58.9404 122.108 56.892C121.701 54.8436 120.695 52.962 119.218 51.4852C117.741 50.0084 115.86 49.0027 113.811 48.5952C111.763 48.1878 109.64 48.3969 107.71 49.1962C105.781 49.9954 104.131 51.3489 102.971 53.0854C101.811 54.822 101.191 56.8636 101.191 58.9521C101.191 61.7527 102.304 64.4386 104.284 66.419C106.265 68.3993 108.951 69.5119 111.751 69.5119ZM111.751 53.6722C112.795 53.6722 113.816 53.9819 114.685 54.562C115.553 55.1422 116.23 55.9668 116.629 56.9316C117.029 57.8963 117.133 58.958 116.93 59.9821C116.726 61.0063 116.223 61.9471 115.485 62.6855C114.746 63.4239 113.805 63.9268 112.781 64.1305C111.757 64.3342 110.695 64.2297 109.731 63.8301C108.766 63.4304 107.941 62.7537 107.361 61.8854C106.781 61.0172 106.471 59.9964 106.471 58.9521C106.471 57.5518 107.028 56.2088 108.018 55.2187C109.008 54.2285 110.351 53.6722 111.751 53.6722Z" fill="#D4D3D7"/>
</g>
<defs>
<clipPath id="clip0_209_838">
<rect width="200" height="200" fill="white"/>
</clipPath>
</defs>
</svg>
