<svg width="200" height="200" viewBox="0 0 200 200" fill="none" xmlns="http://www.w3.org/2000/svg">
<g clip-path="url(#clip0_210_1016)">
<path d="M37.6626 105.195H27.2729V167.533H37.6626C40.5317 167.533 42.8574 165.207 42.8574 162.338V110.39C42.8574 107.521 40.5317 105.195 37.6626 105.195Z" fill="#D4D3D7"/>
<path d="M166.774 112.143C163.023 109.901 158.477 109.804 154.637 111.879L120.619 130.166C119.825 136.572 114.409 141.562 107.793 141.562H86.9093C85.4736 141.562 84.3119 140.401 84.3119 138.965C84.3119 137.53 85.4736 136.368 86.9093 136.368H107.793C112.089 136.368 115.585 132.873 115.585 128.577C115.585 124.362 112.215 120.939 108.031 120.81C106.476 120.792 81.3721 120.786 81.3721 120.786L72.5044 111.919C71.5303 110.946 70.2088 110.398 68.8315 110.398H48.0522V162.349H57.2243L74.0263 167.533C81.0068 169.777 88.4731 172.727 96.7459 172.727C104.226 172.727 111.597 170.246 117.959 165.372L167.431 132.63C170.747 130.357 172.728 126.604 172.728 122.597C172.728 118.27 170.503 114.364 166.774 112.143Z" fill="#D4D3D7"/>
<path d="M63.6362 105.194H84.4154V74.0254H58.4414V99.9994C58.4414 102.869 60.7671 105.194 63.6362 105.194Z" fill="#D4D3D7"/>
<path d="M151.949 99.9994V74.0254H125.975V105.194H146.754C149.623 105.194 151.949 102.869 151.949 99.9994Z" fill="#D4D3D7"/>
<path d="M120.78 32.4675C120.78 29.5984 118.454 27.2727 115.585 27.2727H94.8056C91.9365 27.2727 89.6108 29.5984 89.6108 32.4675V48.0519H120.78V32.4675Z" fill="#D4D3D7"/>
<path d="M120.78 53.2471H89.6108V105.195H120.78V53.2471ZM105.195 76.6237C110.923 76.6237 115.585 81.2833 115.585 87.0133C115.585 91.8409 112.26 95.8724 107.793 97.0338V97.4029C107.793 98.8386 106.631 100 105.195 100C103.76 100 102.598 98.8386 102.598 97.4029V97.0338C98.1304 95.8724 94.8056 91.8409 94.8056 87.0133C94.8056 85.5776 95.9674 84.4159 97.403 84.4159C98.8387 84.4159 100 85.5776 100 87.0133C100 89.877 102.329 92.2081 105.195 92.2081C108.062 92.2081 110.39 89.877 110.39 87.0133C110.39 84.1496 108.062 81.8185 105.195 81.8185C99.4678 81.8185 94.8056 77.1589 94.8056 71.4289C94.8056 66.6012 98.1304 62.5698 102.598 61.4083V61.0393C102.598 59.6036 103.76 58.4419 105.195 58.4419C106.631 58.4419 107.793 59.6036 107.793 61.0393V61.4083C112.26 62.5698 115.585 66.6012 115.585 71.4289C115.585 72.8646 114.423 74.0263 112.987 74.0263C111.552 74.0263 110.39 72.8646 110.39 71.4289C110.39 68.5652 108.062 66.2341 105.195 66.2341C102.329 66.2341 100 68.5652 100 71.4289C100 74.2926 102.329 76.6237 105.195 76.6237Z" fill="#D4D3D7"/>
<path d="M84.4154 48.052L58.4414 68.8312H84.4154V48.052Z" fill="#D4D3D7"/>
<path d="M125.975 48.052V68.8312H151.949L125.975 48.052Z" fill="#D4D3D7"/>
</g>
<defs>
<clipPath id="clip0_210_1016">
<rect width="200" height="200" fill="white"/>
</clipPath>
</defs>
</svg>
