<svg width="200" height="200" viewBox="0 0 200 200" fill="none" xmlns="http://www.w3.org/2000/svg">
<g clip-path="url(#clip0_209_765)">
<path d="M15.6415 126.287C13.7651 125.603 11.6793 126.577 10.9956 128.457C10.0314 131.109 9.39995 133.757 9.11348 136.333C8.89148 138.322 10.3257 140.119 12.3173 140.339C12.4534 140.357 12.5875 140.363 12.7216 140.363C14.5458 140.363 16.1136 138.99 16.3219 137.139C16.5439 135.133 17.0459 133.049 17.8122 130.935C18.4977 129.051 17.5277 126.973 15.6417 126.287L15.6415 126.287Z" fill="#D4D3D7"/>
<path d="M64.903 104.862C60.1152 101.316 54.763 99.4518 48.9753 99.3541C46.9975 99.3118 45.321 100.916 45.2871 102.916C45.2533 104.92 46.849 106.57 48.853 106.606C53.2372 106.678 57.3048 108.138 60.9487 110.944C61.269 111.19 61.6205 111.37 61.9825 111.496L63.2944 108.508L64.903 104.862Z" fill="#D4D3D7"/>
<path d="M32.4631 103.712C27.7691 106.266 23.3114 109.886 19.5692 114.18C18.2535 115.688 18.4091 117.978 19.9215 119.296C20.6077 119.894 21.4573 120.188 22.2998 120.188C23.3115 120.188 24.32 119.766 25.0355 118.942C28.2151 115.292 31.9815 112.232 35.9293 110.084C37.6871 109.128 38.3395 106.924 37.3811 105.166C36.4254 103.409 34.2254 102.758 32.4631 103.712Z" fill="#D4D3D7"/>
<path d="M87.7765 124.187C85.7106 123.437 83.6463 122.347 81.5988 120.953L81.3091 121.614L79.4751 125.784L78.6411 127.681C80.8313 129.067 83.0571 130.189 85.3071 131.006C85.7153 131.153 86.1333 131.224 86.5454 131.224C88.0291 131.224 89.4191 130.306 89.9556 128.834C90.632 126.949 89.6625 124.871 87.7765 124.187Z" fill="#D4D3D7"/>
<path d="M131.723 90.7036C129.837 90.0395 127.765 91.0337 127.101 92.9236C125.401 97.7576 123.343 102.248 120.981 106.267C119.967 107.993 120.541 110.215 122.271 111.229C122.847 111.569 123.479 111.729 124.103 111.729C125.347 111.729 126.561 111.089 127.235 109.937C129.831 105.513 132.089 100.599 133.943 95.3251C134.609 93.4378 133.615 91.3674 131.723 90.7034L131.723 90.7036Z" fill="#D4D3D7"/>
<path d="M168.508 50.817C162.746 49.317 156.754 49.8893 151.068 52.4772C149.246 53.3073 148.442 55.459 149.27 57.2792C149.88 58.6151 151.194 59.4055 152.572 59.4055C153.074 59.4055 153.584 59.2994 154.07 59.0774C158.238 57.1795 162.522 56.7492 166.674 57.8352C168.61 58.3352 170.592 57.177 171.1 55.2395C171.608 53.3034 170.446 51.3229 168.508 50.817Z" fill="#D4D3D7"/>
<path d="M112.198 117.61C108.51 121.114 104.622 123.487 100.636 124.655C98.7143 125.217 97.612 127.233 98.1758 129.155C98.64 130.737 100.086 131.761 101.654 131.761C101.993 131.761 102.336 131.715 102.678 131.615C107.782 130.123 112.668 127.173 117.2 122.867C118.652 121.483 118.708 119.189 117.328 117.735C115.942 116.284 113.648 116.226 112.198 117.61Z" fill="#D4D3D7"/>
<path d="M142.931 62.5154C141.359 61.2772 139.079 61.5493 137.839 63.1196C134.244 67.6854 131.843 72.7296 131.08 77.3176L130.86 78.5995C130.505 80.5695 131.815 82.4557 133.787 82.8098C134.001 82.8476 134.22 82.8658 134.429 82.8658C136.151 82.8658 137.681 81.6341 137.995 79.8775L138.231 78.5136C138.791 75.1496 140.723 71.1737 143.533 67.6034C144.779 66.0337 144.505 63.7557 142.931 62.5156L142.931 62.5154Z" fill="#D4D3D7"/>
<path d="M188.358 65.567C186.712 63.401 184.994 61.4328 183.256 59.7148C181.83 58.3066 179.536 58.3209 178.129 59.7467C176.721 61.1725 176.735 63.4667 178.161 64.8751C179.659 66.3529 181.145 68.0632 182.585 69.9551C183.297 70.8952 184.381 71.3874 185.473 71.3874C186.239 71.3874 187.011 71.1452 187.665 70.6471C189.26 69.4375 189.572 67.1613 188.358 65.567Z" fill="#D4D3D7"/>
<path d="M87.2397 54.4571C72.5359 54.4571 60.5781 66.4174 60.5781 81.1204C60.5781 87.9921 63.2122 94.2468 67.4961 98.9788C68.3639 99.9345 69.2761 100.85 70.2721 101.673L66.6177 109.971L63.0416 118.107L52.4412 142.19C50.8293 145.858 52.4953 150.138 56.1594 151.752C57.1073 152.17 58.0996 152.37 59.0774 152.37C61.8632 152.37 64.5234 150.75 65.7174 148.036L75.6094 125.563L76.1537 124.327L77.9897 120.157L78.6296 118.699L83.5573 107.505C84.765 107.673 85.987 107.789 87.2396 107.789C87.2917 107.789 87.3438 107.783 87.3959 107.783C102.028 107.699 113.903 95.7774 113.903 81.1232C113.903 66.4187 101.946 54.4565 87.2409 54.4565L87.2397 54.4571ZM90.7299 100.2C89.5958 100.408 88.4317 100.532 87.2377 100.532C87.0359 100.532 86.838 100.506 86.6316 100.499C84.7136 100.443 82.8615 100.109 81.12 99.5285C80.5418 99.3345 79.98 99.1184 79.428 98.8743C78.872 98.6282 78.3297 98.3625 77.8017 98.0663C76.1578 97.1483 74.6657 95.9986 73.3577 94.6561C72.4019 93.6744 71.5557 92.5858 70.818 91.4225C68.9397 88.4323 67.8297 84.9061 67.8297 81.1185C67.8297 70.4146 76.5373 61.7068 87.2397 61.7068C97.9415 61.7068 106.65 70.4145 106.65 81.1185C106.648 90.6328 99.7675 98.5501 90.7297 100.2L90.7299 100.2Z" fill="#D4D3D7"/>
</g>
<defs>
<clipPath id="clip0_209_765">
<rect width="200" height="200" fill="white"/>
</clipPath>
</defs>
</svg>
