<svg width="72" height="73" viewBox="0 0 72 73" fill="none" xmlns="http://www.w3.org/2000/svg">
<g clip-path="url(#clip0_656_360)">
<path d="M26.515 72.5997C41.1588 72.5997 53.0299 60.6803 53.0299 45.9769C53.0299 44.394 52.8923 42.8433 52.6285 41.3363H31.1368C25.763 41.3363 21.4066 45.7104 21.4066 51.1061H44.0344C41.8251 58.7266 34.8177 64.2953 26.515 64.2953C16.439 64.2953 8.27073 56.0939 8.27073 45.9769C8.27073 37.1969 14.4227 29.8596 22.6347 28.0737V19.6372C9.83029 21.5224 0 32.597 0 45.9769C0 60.6803 11.8712 72.5997 26.515 72.5997Z" fill="white"/>
<path d="M45.7554 27.6585H36V21.1082C39.7303 22.5434 43.0553 24.8004 45.7554 27.6585Z" fill="white"/>
<path fill-rule="evenodd" clip-rule="evenodd" d="M41.5394 29.2136L59.2426 29.2137L72 41.9671V59.6656H70.4379V41.9671H68.8758V59.6656H67.3136V41.9671H65.4911V59.6656H63.929V41.9671H62.3668V59.6656H60.8047V41.9671H58.9822V59.6656H57.4201V41.9671H55.8579V59.6656H54.2958V41.9671L43.7006 31.3753L35.5501 39.5891V40.9111H30.8289C27.6777 40.9111 24.8698 42.476 23.0529 44.9159V9.3401C23.0529 8.90887 22.7011 8.55861 22.2697 8.5642C17.2925 8.62881 15.035 9.33511 14.4743 11.021C14.3107 11.5127 13.8043 11.8656 13.3253 11.6675C11.0864 10.7411 9.92897 9.67907 8.56596 7.91883C8.25099 7.51206 8.42516 6.9196 8.9084 6.74286C22.0154 1.9491 36.4072 2.00311 49.4785 6.89603C49.9473 7.07151 50.1244 7.64179 49.8198 8.03887C48.5353 9.71305 47.238 10.6443 45.1575 11.598C44.6703 11.8213 44.1278 11.4677 43.9254 10.9716C43.2907 9.41583 41.076 8.64005 36.333 8.56528C35.9017 8.55848 35.5501 8.90886 35.5501 9.3401V35.2567L41.5394 29.2136ZM29.3015 11.5152C30.5956 11.5152 31.6447 10.4665 31.6447 9.17278C31.6447 7.87908 30.5956 6.83033 29.3015 6.83033C28.0074 6.83033 26.9583 7.87908 26.9583 9.17278C26.9583 10.4665 28.0074 11.5152 29.3015 11.5152Z" fill="white"/>
<path d="M35.5501 59.6656H23.0529V51.4739H35.5501V59.6656Z" fill="white"/>
</g>
<defs>
<clipPath id="clip0_656_360">
<rect width="72" height="72" fill="white" transform="translate(0 0.599609)"/>
</clipPath>
</defs>
</svg>
