<svg width="120" height="120" viewBox="0 0 120 120" fill="none" xmlns="http://www.w3.org/2000/svg">
<g clip-path="url(#clip0_112_794)">
<path fill-rule="evenodd" clip-rule="evenodd" d="M52.8509 62.2144H68.1025C69.1554 62.2144 70.0089 63.071 70.0089 64.1277V99.5243C70.0089 100.581 69.1554 101.438 68.1025 101.438H52.8509C51.798 101.438 50.9445 100.581 50.9445 99.5243V64.1277C50.9445 63.071 51.798 62.2144 52.8509 62.2144ZM66.0054 65.0844H54.948C54.3163 65.0844 53.8042 65.5984 53.8042 66.2324V97.4197C53.8042 98.0537 54.3163 98.5677 54.948 98.5677H66.0054C66.6371 98.5677 67.1493 98.0537 67.1493 97.4197V66.2324C67.1493 65.5984 66.6371 65.0844 66.0054 65.0844Z" fill="#428358"/>
<path fill-rule="evenodd" clip-rule="evenodd" d="M18.535 76.5644C17.4821 76.5644 16.6285 77.421 16.6285 78.4777V99.5243C16.6285 100.581 17.4821 101.438 18.535 101.438H31.8801C32.933 101.438 33.7865 100.581 33.7865 99.5243V78.4777C33.7865 77.421 32.933 76.5644 31.8801 76.5644H18.535ZM29.783 79.4344H20.632C20.0003 79.4344 19.4882 79.9484 19.4882 80.5824V97.4197C19.4882 98.0537 20.0003 98.5677 20.632 98.5677H29.783C30.4147 98.5677 30.9268 98.0537 30.9268 97.4197V80.5824C30.9268 79.9484 30.4147 79.4344 29.783 79.4344Z" fill="#428358"/>
<path fill-rule="evenodd" clip-rule="evenodd" d="M87.1669 44.0377H102.418C103.471 44.0377 104.325 44.8944 104.325 45.9511V99.5243C104.325 100.581 103.471 101.438 102.418 101.438H87.1669C86.114 101.438 85.2605 100.581 85.2605 99.5243V45.9511C85.2605 44.8944 86.114 44.0377 87.1669 44.0377ZM100.321 46.9077H89.264C88.6323 46.9077 88.1201 47.4217 88.1201 48.0557V97.4197C88.1201 98.0537 88.6323 98.5677 89.264 98.5677H100.321C100.953 98.5677 101.465 98.0537 101.465 97.4197V48.0557C101.465 47.4217 100.953 46.9077 100.321 46.9077Z" fill="#428358"/>
<path d="M62.2392 34.0053H64.4531V36.7517H60.1147L60.0476 36.889L63.6704 42.748C64.4009 43.9534 64.7662 44.9756 64.7662 45.8148C64.7662 47.3559 64.2668 48.4849 63.2679 49.2021H62.2168V51.1703H59.8463V49.2021H57.3417V46.5472H62.0826L62.1497 46.4099L58.0126 39.8414C57.4311 38.8954 57.1404 38.0257 57.1404 37.2323C57.1404 35.6455 57.789 34.5698 59.086 34.0053H59.8687V32.037H62.2392V34.0053Z" fill="#428358"/>
<path fill-rule="evenodd" clip-rule="evenodd" d="M75.8583 41.651C75.8583 49.6741 69.2401 56.1782 61.0761 56.1782C52.9122 56.1782 46.294 49.6741 46.294 41.651C46.294 33.6278 52.9122 27.1238 61.0761 27.1238C69.2401 27.1238 75.8583 33.6278 75.8583 41.651ZM60.9533 53.6044C67.5339 53.6044 72.8686 48.2505 72.8686 41.6461C72.8686 35.0417 67.5339 29.6878 60.9533 29.6878C54.3727 29.6878 49.038 35.0417 49.038 41.6461C49.038 48.2505 54.3727 53.6044 60.9533 53.6044Z" fill="#428358"/>
<path d="M47.9576 48.3381C38.4398 52.6518 27.8198 56.3055 14.8256 59.8298C14.0633 60.0366 13.6123 60.8244 13.8184 61.5895C14.0244 62.3546 14.8094 62.8072 15.5717 62.6004C28.8704 58.9935 39.7658 55.2349 49.5677 50.7566C48.9532 50.0074 48.4129 49.1976 47.9576 48.3381Z" fill="#428358"/>
<path d="M73.4061 33.6473C73.9432 34.4443 74.4024 35.2959 74.7732 36.1912C81.9439 31.1352 89.1692 25.2866 97.1441 18.3581L100.231 21.4061C100.792 21.9602 101.742 21.6314 101.844 20.848L102.996 11.9899C103.078 11.3607 102.538 10.8273 101.913 10.9196L93.1063 12.2193C92.3274 12.3342 92.0153 13.2935 92.5764 13.8477L95.0991 16.3387C87.338 23.0753 80.3269 28.7485 73.4061 33.6473Z" fill="#428358"/>
<path d="M10.9092 106.221H109.091V109.091H10.9092V106.221Z" fill="#428358"/>
</g>
<defs>
<clipPath id="clip0_112_794">
<rect width="120" height="120" rx="8" fill="white"/>
</clipPath>
</defs>
</svg>
