<svg width="181" height="216" viewBox="0 0 181 216" fill="none" xmlns="http://www.w3.org/2000/svg">
<path d="M153.095 82.1418C148.731 82.1432 144.496 83.6063 141.071 86.295C137.646 88.9838 135.231 92.7415 134.216 96.9622L128.096 95.4232L133.701 102.127C133.833 105.916 135.085 109.582 137.298 112.669C139.512 115.755 142.59 118.126 146.149 119.484C149.708 120.842 153.59 121.129 157.311 120.308C161.033 119.486 164.429 117.594 167.076 114.866C169.724 112.138 171.505 108.695 172.199 104.967C172.892 101.239 172.467 97.3902 170.976 93.9008C169.485 90.4114 166.994 87.4357 163.815 85.3446C160.635 83.2535 156.906 82.1397 153.095 82.1418Z" fill="white"/>
<path d="M153.094 121.918C147.824 121.935 142.749 119.931 138.927 116.321C135.106 112.71 132.831 107.773 132.577 102.537L127.179 96.1529C127.043 95.961 126.97 95.7321 126.97 95.4974C126.97 95.2628 127.043 95.0339 127.179 94.8419C127.308 94.6356 127.5 94.4756 127.726 94.3854C127.953 94.2952 128.203 94.2794 128.439 94.3403L133.46 95.6057C134.556 91.9745 136.646 88.718 139.495 86.1996C142.345 83.6813 145.842 82.0003 149.597 81.3445C153.351 80.6886 157.215 81.0837 160.757 82.4855C164.299 83.8873 167.379 86.2408 169.654 89.283C171.929 92.3253 173.309 95.9366 173.639 99.7137C173.97 103.491 173.239 107.285 171.527 110.673C169.815 114.06 167.19 116.908 163.946 118.898C160.701 120.887 156.964 121.941 153.152 121.94L153.094 121.918ZM131.225 97.3842L134.583 101.397C134.747 101.593 134.839 101.838 134.847 102.092C135.007 106.7 136.921 111.075 140.201 114.332C143.482 117.59 147.884 119.486 152.517 119.638C157.149 119.789 161.667 118.185 165.156 115.149C168.644 112.113 170.844 107.873 171.308 103.286C171.772 98.6986 170.468 94.1073 167.658 90.4407C164.848 86.7741 160.742 84.306 156.172 83.5359C151.602 82.7657 146.908 83.751 143.04 86.2923C139.173 88.8337 136.42 92.7413 135.34 97.2246C135.305 97.372 135.241 97.511 135.151 97.6335C135.062 97.756 134.949 97.8596 134.818 97.9381C134.688 98.0166 134.544 98.0686 134.393 98.0909C134.242 98.1133 134.089 98.1055 133.941 98.0682L131.225 97.3842Z" fill="#DFEAEF"/>
<path d="M63.8276 20.2612C63.8276 20.2612 54.9674 17.32 46.5427 27.5802C38.439 37.5099 37.5908 51.8173 38.0493 64.0612C38.5766 78.1748 45.7518 89.8829 44.4681 104.338C44.1186 106.563 44.1186 108.828 44.4681 111.053C45.2335 113.787 46.8068 116.23 48.9841 118.064C55.2654 123.924 63.8849 126.854 72.5388 127.31C81.1926 127.766 89.7319 125.919 97.9158 123.217C104.254 121.108 110.73 118.247 114.662 112.866C119.006 106.915 118.777 100.041 118.914 93.0635C119.04 86.6566 122.021 80.6714 122.892 74.196C124.84 59.6265 123.075 44.4185 115.682 31.5019C104.919 12.7599 76.241 4.22103 63.8276 20.2612Z" fill="#725858"/>
<path d="M75.1178 128.553C74.2085 128.553 73.3145 128.53 72.4357 128.484C62.8305 127.971 54.211 124.574 48.1475 118.919C45.7895 116.945 44.0972 114.299 43.299 111.338C42.9726 109.303 42.9726 107.229 43.299 105.193L43.3793 104.27C44.0785 96.4038 42.2331 89.4496 40.296 82.142C38.7715 76.4419 37.2012 70.5023 36.9605 64.141C36.5135 52.3417 37.1095 37.4415 45.7061 26.9076C53.145 17.7874 60.9507 18.4714 63.4379 18.9274C68.3323 13.022 75.7826 10.115 84.5282 10.7192C91.1106 11.3345 97.4525 13.4935 103.033 17.019C108.614 20.5445 113.275 25.336 116.634 31.0003C123.614 43.1986 126.147 58.2014 123.981 74.424C123.541 77.2416 122.894 80.0232 122.044 82.7463C120.922 86.1151 120.241 89.6132 120.015 93.1547V94.6482C119.912 101.112 119.809 107.793 115.568 113.607C111.327 119.421 104.105 122.442 98.2483 124.357C90.8151 126.984 83.0046 128.4 75.1178 128.553ZM60.6985 21.0023C57.6496 21.0023 52.5031 22.1423 47.4254 28.344C39.3102 38.2851 38.76 52.6495 39.1841 64.0498C39.4134 70.1717 40.9493 75.9631 42.4394 81.5606C44.3536 88.7656 46.3365 96.21 45.5915 104.475L45.5112 105.41C45.2242 107.211 45.2242 109.047 45.5112 110.848C46.2268 113.356 47.6845 115.593 49.6949 117.266C55.4259 122.545 63.4494 125.725 72.5274 126.204C79.9204 126.603 88.07 125.281 97.4804 122.168C103.303 120.23 109.791 117.551 113.665 112.239C117.539 106.926 117.573 100.964 117.677 94.5798V93.0749C117.908 89.3403 118.621 85.6507 119.797 82.0964C120.603 79.4821 121.227 76.8157 121.665 74.1162C123.133 63.1605 123.098 46.9835 114.593 32.1289C111.42 26.7954 107.021 22.2853 101.757 18.9682C96.4935 15.6511 90.5147 13.6212 84.3104 13.0448C76.0692 12.4748 69.1117 15.3249 64.7332 20.9566C64.588 21.1449 64.3874 21.2834 64.1594 21.3529C63.9313 21.4224 63.6871 21.4193 63.4609 21.3443C62.5611 21.1001 61.631 20.9849 60.6985 21.0023Z" fill="#2B5743"/>
<path d="M58.8874 114.975H87.2446C92.5523 114.975 97.6427 117.072 101.396 120.805C105.149 124.538 107.257 129.601 107.257 134.88V185.668H38.9204V134.868C38.9234 129.599 41.027 124.546 44.7699 120.817C48.5128 117.088 53.5896 114.987 58.8874 114.975Z" fill="#68BF7B"/>
<path d="M107.246 186.797H38.9204C38.6164 186.797 38.3248 186.677 38.1099 186.463C37.8949 186.249 37.7742 185.959 37.7742 185.657V134.868C37.7802 129.29 40.0118 123.942 43.9789 119.998C47.946 116.054 53.3244 113.838 58.9332 113.835H87.2904C92.8972 113.841 98.2727 116.059 102.237 120.002C106.202 123.945 108.432 129.292 108.438 134.868V185.657C108.438 185.81 108.407 185.962 108.347 186.104C108.286 186.245 108.198 186.373 108.086 186.479C107.975 186.586 107.843 186.669 107.699 186.723C107.554 186.778 107.4 186.803 107.246 186.797ZM40.0207 184.517H106.1V134.868C106.094 129.896 104.105 125.13 100.57 121.614C97.0358 118.099 92.2434 116.121 87.2446 116.115H58.8873C53.8945 116.13 49.1109 118.112 45.5836 121.626C42.0564 125.141 40.0726 129.902 40.0666 134.868L40.0207 184.517Z" fill="#2B5743"/>
<path d="M179.343 184.3H1.6687V214.739H179.343V184.3Z" fill="white"/>
<path d="M179.331 215.879H1.66867C1.36468 215.879 1.07313 215.759 0.858177 215.545C0.643221 215.331 0.522461 215.041 0.522461 214.739V184.3C0.522461 183.998 0.643221 183.708 0.858177 183.494C1.07313 183.28 1.36468 183.16 1.66867 183.16H179.331C179.635 183.16 179.927 183.28 180.142 183.494C180.357 183.708 180.477 183.998 180.477 184.3V214.739C180.477 215.041 180.357 215.331 180.142 215.545C179.927 215.759 179.635 215.879 179.331 215.879ZM2.81488 213.599H178.185V185.44H2.81488V213.599Z" fill="#2B5743"/>
<path d="M85.8579 115.841L80.1727 158.41L74.1895 115.841H85.8579Z" fill="white"/>
<path d="M80.184 159.55C79.9041 159.552 79.6331 159.453 79.4219 159.27C79.2108 159.087 79.0741 158.834 79.0378 158.558L73.0545 116.001C73.0317 115.841 73.0435 115.678 73.0889 115.522C73.1344 115.367 73.2125 115.223 73.3182 115.1C73.4258 114.975 73.5594 114.875 73.7098 114.806C73.8601 114.737 74.0237 114.701 74.1893 114.701H85.915C86.0786 114.703 86.24 114.739 86.3883 114.808C86.5366 114.877 86.6683 114.977 86.7747 115.1C86.8823 115.222 86.9626 115.366 87.01 115.521C87.0575 115.676 87.071 115.84 87.0498 116.001L81.3187 158.558C81.2823 158.834 81.1457 159.087 80.9346 159.27C80.7234 159.453 80.4524 159.552 80.1725 159.55H80.184ZM75.5189 116.981L80.1037 149.962L84.5166 116.981H75.5189Z" fill="#2B5743"/>
<path d="M80.184 159.55C79.936 159.55 79.6947 159.47 79.4963 159.322L63.1399 147.283C63.012 147.189 62.9052 147.07 62.8262 146.932C62.7473 146.795 62.698 146.643 62.6814 146.485C62.665 146.327 62.682 146.167 62.7314 146.016C62.7807 145.865 62.8613 145.726 62.968 145.607L69.765 138.14L62.2573 131.049C62.054 130.855 61.9299 130.593 61.9087 130.313C61.8876 130.033 61.9709 129.755 62.1427 129.533L73.3068 115.146C73.499 114.928 73.7677 114.79 74.0581 114.762C74.3485 114.734 74.6387 114.817 74.8696 114.995C75.1006 115.172 75.2548 115.43 75.3009 115.717C75.347 116.003 75.2815 116.296 75.1178 116.537L64.6071 130.103L72.1606 137.251C72.375 137.456 72.5009 137.736 72.5116 138.032C72.5223 138.328 72.417 138.616 72.2179 138.836L65.524 146.2L80.8489 157.487C80.9702 157.576 81.0726 157.687 81.1504 157.816C81.2281 157.944 81.2797 158.087 81.302 158.235C81.3244 158.383 81.3171 158.534 81.2807 158.68C81.2442 158.825 81.1793 158.962 81.0895 159.083C80.9851 159.225 80.8491 159.341 80.692 159.422C80.5349 159.503 80.361 159.547 80.184 159.55Z" fill="#2B5743"/>
<path d="M80.8603 159.55C80.6318 159.537 80.4125 159.456 80.2306 159.317C80.0488 159.179 79.9127 158.99 79.84 158.774C79.7672 158.558 79.7611 158.326 79.8224 158.106C79.8837 157.887 80.0097 157.691 80.184 157.543L95.5203 146.257L88.815 138.893C88.6084 138.68 88.4929 138.396 88.4929 138.1C88.4929 137.805 88.6084 137.52 88.815 137.308L96.3914 130.16L85.9151 116.502C85.8233 116.383 85.7559 116.247 85.7169 116.103C85.6778 115.958 85.6679 115.807 85.6876 115.658C85.7073 115.509 85.7562 115.366 85.8316 115.236C85.9071 115.106 86.0075 114.992 86.1271 114.901C86.2468 114.809 86.3834 114.742 86.5291 114.703C86.6748 114.665 86.8267 114.655 86.9763 114.674C87.1258 114.694 87.27 114.743 87.4006 114.818C87.5313 114.893 87.6457 114.992 87.7376 115.112L98.8673 129.499C99.0391 129.721 99.1224 129.999 99.1012 130.279C99.0801 130.558 98.9559 130.82 98.7526 131.015L91.2564 138.163L98.0534 145.63C98.1601 145.748 98.2407 145.888 98.29 146.039C98.3394 146.19 98.3564 146.35 98.34 146.508C98.3234 146.665 98.2741 146.818 98.1952 146.955C98.1163 147.092 98.0094 147.212 97.8815 147.306L81.5366 159.345C81.3385 159.482 81.1018 159.554 80.8603 159.55Z" fill="#2B5743"/>
<path d="M74.8999 109.172H86.5683V115.853C86.5683 117.159 86.0466 118.412 85.118 119.335C84.1894 120.259 82.9299 120.778 81.6167 120.778H79.8515C78.5383 120.778 77.2788 120.259 76.3502 119.335C75.4216 118.412 74.8999 117.159 74.8999 115.853V109.172Z" fill="#FFC9B0"/>
<path d="M81.6054 121.918H79.8517C78.2335 121.915 76.6825 121.273 75.5392 120.134C74.396 118.995 73.7539 117.451 73.7539 115.841V109.172C73.7539 108.87 73.8747 108.58 74.0896 108.366C74.3046 108.152 74.5961 108.032 74.9001 108.032H86.5571C86.8611 108.032 87.1526 108.152 87.3676 108.366C87.5825 108.58 87.7033 108.87 87.7033 109.172V115.841C87.7033 117.451 87.0612 118.995 85.918 120.134C84.7747 121.273 83.2237 121.915 81.6054 121.918ZM76.0463 110.312V115.841C76.0463 116.846 76.4469 117.81 77.1602 118.522C77.8735 119.233 78.8414 119.634 79.8517 119.637H81.6054C82.6158 119.634 83.5837 119.233 84.297 118.522C85.0103 117.81 85.4109 116.846 85.4109 115.841V110.312H76.0463Z" fill="#2B5743"/>
<path d="M101.515 50.2096L90.4999 36.0732C90.4999 36.0732 88.0126 44.7717 86.4882 50.164H69.0543L64.9509 37.5325L60.1139 50.1412H46.5886V76.7837C46.5886 81.249 47.4731 85.6706 49.1915 89.7959C50.9099 93.9212 53.4286 97.6694 56.6038 100.826C59.7789 103.983 63.5482 106.487 67.6964 108.195C71.8447 109.903 76.2905 110.781 80.7801 110.779C89.8451 110.779 98.539 107.198 104.949 100.822C111.359 94.4469 114.96 85.7999 114.96 76.7837V50.2552L101.515 50.2096Z" fill="#FFC9B0"/>
<path d="M80.7341 111.828C71.3668 111.819 62.3855 108.115 55.7607 101.528C49.136 94.941 45.4086 86.0094 45.3965 76.6925V50.05C45.3965 49.7477 45.5172 49.4577 45.7322 49.2439C45.9472 49.0301 46.2387 48.91 46.5427 48.91H59.2771L63.8619 37.0537C63.9476 36.8241 64.1054 36.6281 64.3118 36.4946C64.5182 36.3612 64.7624 36.2974 65.0081 36.3127C65.2473 36.3184 65.4787 36.3984 65.6699 36.5415C65.8611 36.6846 66.0024 36.8836 66.0741 37.1107L69.8681 48.9784H85.5941C87.0612 43.6202 89.3536 35.754 89.3536 35.754C89.4118 35.5518 89.5251 35.3694 89.681 35.2272C89.837 35.085 90.0294 34.9885 90.2371 34.9484C90.4447 34.9083 90.6595 34.9261 90.8576 34.9999C91.0557 35.0737 91.2294 35.2005 91.3595 35.3664L102.077 49.0468H114.914C115.218 49.0468 115.51 49.1669 115.725 49.3807C115.94 49.5945 116.06 49.8845 116.06 50.1868V76.6241C116.066 85.9508 112.349 94.8983 105.724 101.5C99.1001 108.101 90.1114 111.816 80.7341 111.828ZM47.6889 51.19V76.6925C47.8501 85.3019 51.4019 93.5045 57.5805 99.5364C63.7591 105.568 72.0709 108.947 80.7284 108.947C89.386 108.947 97.6977 105.568 103.876 99.5364C110.055 93.5045 113.607 85.3019 113.768 76.6925V51.3839H101.515C101.341 51.3848 101.169 51.3463 101.012 51.2712C100.855 51.1961 100.717 51.0865 100.609 50.9506L90.9469 38.5813L87.5082 50.506C87.4389 50.7526 87.2881 50.9688 87.0802 51.1198C86.8723 51.2708 86.6193 51.3477 86.362 51.3382H68.9282C68.6865 51.3381 68.451 51.2619 68.2554 51.1206C68.0599 50.9793 67.9142 50.7802 67.8393 50.5516L64.7331 40.9982L61.0537 50.5744C60.9717 50.7926 60.8245 50.9806 60.6319 51.1131C60.4393 51.2456 60.2105 51.3162 59.9763 51.3155L47.6889 51.19Z" fill="#2B5743"/>
<path d="M80.5622 83.4415C79.5219 83.4351 78.4836 83.3513 77.4559 83.1907C77.3077 83.1646 77.166 83.1096 77.0391 83.029C76.9121 82.9484 76.8024 82.8437 76.7162 82.7209C76.63 82.5981 76.5689 82.4595 76.5366 82.3132C76.5042 82.167 76.5011 82.0158 76.5275 81.8683C76.5538 81.7208 76.609 81.5799 76.6901 81.4536C76.7712 81.3274 76.8764 81.2183 76.9999 81.1325C77.1234 81.0468 77.2627 80.9861 77.4098 80.9539C77.5568 80.9217 77.7089 80.9186 77.8571 80.9449C79.3507 81.1911 80.8728 81.2141 82.3732 81.0133C82.4534 79.9986 81.2843 76.7609 79.714 73.7741C79.6315 73.6407 79.5775 73.4918 79.5555 73.3367C79.5334 73.1816 79.5437 73.0237 79.5857 72.8728C79.6277 72.7218 79.7005 72.5811 79.7996 72.4594C79.8987 72.3377 80.022 72.2376 80.1617 72.1653C80.3014 72.0931 80.4546 72.0503 80.6117 72.0396C80.7688 72.0288 80.9265 72.0504 81.0748 72.1029C81.2232 72.1554 81.359 72.2378 81.474 72.3449C81.5889 72.452 81.6804 72.5814 81.7428 72.7252C82.889 74.8571 85.3648 80.0442 84.4249 82.1191C84.3124 82.3781 84.141 82.6076 83.9242 82.7896C83.7074 82.9716 83.4512 83.1011 83.1755 83.1679C82.3184 83.3621 81.4411 83.4539 80.5622 83.4415Z" fill="#2B5743"/>
<path d="M71.3697 63.2403H56.2741C55.6661 63.2403 55.083 63.0001 54.6531 62.5725C54.2232 62.1449 53.9817 61.5649 53.9817 60.9602C53.9817 60.3555 54.2232 59.7756 54.6531 59.348C55.083 58.9204 55.6661 58.6802 56.2741 58.6802H71.3582C71.9662 58.6802 72.5493 58.9204 72.9792 59.348C73.4091 59.7756 73.6507 60.3555 73.6507 60.9602C73.6507 61.5649 73.4091 62.1449 72.9792 62.5725C72.5493 63.0001 71.9662 63.2403 71.3582 63.2403H71.3697Z" fill="#2B5743"/>
<path d="M92.8841 63.6166C92.2762 63.6317 91.687 63.406 91.2464 62.9891C90.8057 62.5721 90.5496 61.9982 90.5344 61.3935C90.5192 60.7888 90.7462 60.2028 91.1653 59.7646C91.5845 59.3263 92.1615 59.0716 92.7695 59.0564L107.842 58.2812C108.45 58.2495 109.046 58.4592 109.498 58.8644C109.951 59.2695 110.223 59.8369 110.255 60.4416C110.287 61.0463 110.076 61.6388 109.669 62.0889C109.261 62.5389 108.691 62.8096 108.083 62.8413L93.0102 63.6052L92.8841 63.6166Z" fill="#2B5743"/>
<path d="M82.889 96.5861C75.6908 96.5861 67.9883 92.6758 67.5412 92.4364C67.4071 92.3677 67.2879 92.2734 67.1904 92.1588C67.093 92.0442 67.0193 91.9116 66.9735 91.7686C66.9277 91.6257 66.9107 91.4751 66.9236 91.3256C66.9364 91.176 66.9788 91.0305 67.0484 90.8973C67.1898 90.6298 67.4322 90.4291 67.7224 90.3393C68.0126 90.2495 68.3267 90.278 68.5958 90.4185C68.7448 90.4869 83.2443 97.8629 89.6975 92.1514C89.9265 91.9686 90.2172 91.8802 90.5098 91.9044C90.8024 91.9286 91.0745 92.0635 91.27 92.2813C91.4655 92.4992 91.5695 92.7833 91.5605 93.0752C91.5516 93.3671 91.4304 93.6444 91.2219 93.85C88.884 95.7627 85.9124 96.7384 82.889 96.5861Z" fill="#2B5743"/>
<path d="M102.822 75.8604C102.518 75.8604 102.226 75.7403 102.011 75.5265C101.796 75.3127 101.675 75.0227 101.675 74.7204C101.622 73.748 101.196 72.833 100.485 72.1635C99.7738 71.4941 98.8319 71.1209 97.8528 71.1209C96.8737 71.1209 95.9318 71.4941 95.2208 72.1635C94.5098 72.833 94.0838 73.748 94.0302 74.7204C94.0302 75.0227 93.9095 75.3127 93.6945 75.5265C93.4795 75.7403 93.188 75.8604 92.884 75.8604C92.58 75.8604 92.2885 75.7403 92.0735 75.5265C91.8586 75.3127 91.7378 75.0227 91.7378 74.7204C91.806 73.1529 92.4801 71.6721 93.6194 70.5869C94.7588 69.5018 96.2753 68.896 97.8528 68.896C99.4303 68.896 100.947 69.5018 102.086 70.5869C103.226 71.6721 103.9 73.1529 103.968 74.7204C103.968 75.0227 103.847 75.3127 103.632 75.5265C103.417 75.7403 103.126 75.8604 102.822 75.8604Z" fill="#2B5743"/>
<path d="M68.7907 75.8604C68.4867 75.8604 68.1951 75.7403 67.9802 75.5265C67.7652 75.3127 67.6444 75.0228 67.6444 74.7204C67.6444 73.7136 67.2423 72.748 66.5265 72.036C65.8107 71.3241 64.8399 70.9241 63.8276 70.9241C62.8153 70.9241 61.8444 71.3241 61.1286 72.036C60.4128 72.748 60.0107 73.7136 60.0107 74.7204C60.0107 75.0228 59.8899 75.3127 59.675 75.5265C59.46 75.7403 59.1685 75.8604 58.8645 75.8604C58.5605 75.8604 58.2689 75.7403 58.054 75.5265C57.839 75.3127 57.7183 75.0228 57.7183 74.7204C57.7183 73.1089 58.3619 71.5633 59.5076 70.4238C60.6534 69.2842 62.2073 68.644 63.8276 68.644C65.4478 68.644 67.0018 69.2842 68.1475 70.4238C69.2932 71.5633 69.9369 73.1089 69.9369 74.7204C69.9369 75.0228 69.8161 75.3127 69.6011 75.5265C69.3862 75.7403 69.0946 75.8604 68.7907 75.8604Z" fill="#2B5743"/>
<path d="M102.822 172.729C102.518 172.729 102.226 172.609 102.011 172.395C101.796 172.181 101.676 171.891 101.676 171.589V136.487C101.676 136.185 101.796 135.895 102.011 135.681C102.226 135.467 102.518 135.347 102.822 135.347C103.126 135.347 103.417 135.467 103.632 135.681C103.847 135.895 103.968 136.185 103.968 136.487V171.589C103.968 171.891 103.847 172.181 103.632 172.395C103.417 172.609 103.126 172.729 102.822 172.729Z" fill="#2B5743"/>
<path d="M127.075 65.0073C126.771 65.0073 126.48 64.8872 126.265 64.6734C126.05 64.4596 125.929 64.1696 125.929 63.8673V45.1708C125.929 22.051 105.641 3.24051 80.7113 3.24051C55.7813 3.24051 35.4819 22.051 35.4819 45.1708V63.8673C35.4819 64.1696 35.3611 64.4596 35.1462 64.6734C34.9312 64.8872 34.6397 65.0073 34.3357 65.0073C34.0317 65.0073 33.7401 64.8872 33.5252 64.6734C33.3102 64.4596 33.1895 64.1696 33.1895 63.8673V45.1708C33.1895 20.797 54.4975 0.960449 80.6998 0.960449C106.902 0.960449 128.21 20.797 128.21 45.1708V63.8673C128.21 64.1677 128.091 64.4559 127.879 64.6694C127.666 64.8829 127.377 65.0043 127.075 65.0073Z" fill="#2B5743"/>
<path d="M121.505 58.3381H120.485C117.408 58.3381 114.914 60.8187 114.914 63.8787V79.6111C114.914 82.671 117.408 85.1516 120.485 85.1516H121.505C124.582 85.1516 127.076 82.671 127.076 79.6111V63.8787C127.076 60.8187 124.582 58.3381 121.505 58.3381Z" fill="#68BF7B"/>
<path d="M121.505 86.2918H120.485C118.704 86.2888 116.998 85.584 115.739 84.3318C114.48 83.0796 113.771 81.3821 113.768 79.6112V63.8674C113.771 62.0976 114.48 60.4013 115.739 59.1509C116.999 57.9005 118.705 57.1982 120.485 57.1982H121.505C123.284 57.1982 124.991 57.9005 126.25 59.1509C127.51 60.4013 128.219 62.0976 128.222 63.8674V79.6112C128.219 81.3821 127.51 83.0796 126.251 84.3318C124.992 85.584 123.285 86.2888 121.505 86.2918ZM120.485 59.5011C119.313 59.5011 118.19 59.9632 117.36 60.7859C116.531 61.6087 116.064 62.7251 116.06 63.8902V79.634C116.06 80.8011 116.527 81.9204 117.356 82.7457C118.186 83.5709 119.311 84.0345 120.485 84.0345H121.505C122.086 84.0345 122.661 83.9207 123.198 83.6996C123.735 83.4784 124.223 83.1543 124.633 82.7457C125.044 82.337 125.37 81.8519 125.593 81.318C125.815 80.7841 125.929 80.2119 125.929 79.634V63.8674C125.926 62.7023 125.459 61.5859 124.629 60.7631C123.8 59.9404 122.676 59.4783 121.505 59.4783L120.485 59.5011Z" fill="#2B5743"/>
<path d="M40.9723 58.3381H39.9522C36.8756 58.3381 34.3816 60.8187 34.3816 63.8787V79.6111C34.3816 82.671 36.8756 85.1516 39.9522 85.1516H40.9723C44.0488 85.1516 46.5429 82.671 46.5429 79.6111V63.8787C46.5429 60.8187 44.0488 58.3381 40.9723 58.3381Z" fill="#68BF7B"/>
<path d="M40.9723 86.2917H39.9521C38.1717 86.2887 36.465 85.5839 35.206 84.3317C33.947 83.0795 33.2384 81.382 33.2354 79.6111V63.8673C33.2444 62.1015 33.9561 60.411 35.2148 59.1655C36.4734 57.9201 38.1767 57.2209 39.9521 57.2209H40.9723C42.7517 57.2209 44.4584 57.9232 45.7177 59.1736C46.977 60.424 47.686 62.1203 47.6891 63.8901V79.6339C47.68 81.4009 46.9687 83.0925 45.7104 84.3398C44.452 85.587 42.7488 86.2887 40.9723 86.2917ZM39.9521 59.501C38.7807 59.501 37.6571 59.9631 36.8277 60.7859C35.9983 61.6086 35.5308 62.725 35.5278 63.8901V79.6339C35.5278 80.801 35.9939 81.9203 36.8236 82.7456C37.6534 83.5708 38.7787 84.0344 39.9521 84.0344H40.9723C42.1457 84.0344 43.2711 83.5708 44.1008 82.7456C44.9305 81.9203 45.3966 80.801 45.3966 79.6339V63.8673C45.3936 62.7022 44.9261 61.5858 44.0967 60.7631C43.2673 59.9403 42.1437 59.4782 40.9723 59.4782L39.9521 59.501Z" fill="#2B5743"/>
<path d="M66.4984 103.267H66.3265L39.7803 99.2197C39.5069 99.1785 39.2578 99.0404 39.0788 98.8309C38.8997 98.6214 38.8029 98.3546 38.806 98.0797V85.1517C38.806 84.8494 38.9267 84.5594 39.1417 84.3456C39.3567 84.1318 39.6482 84.0117 39.9522 84.0117C40.2562 84.0117 40.5477 84.1318 40.7627 84.3456C40.9776 84.5594 41.0984 84.8494 41.0984 85.1517V97.1221L66.6704 101.021C66.8195 101.043 66.9627 101.095 67.0918 101.172C67.2209 101.249 67.3334 101.351 67.4229 101.472C67.5123 101.593 67.5769 101.73 67.613 101.875C67.6491 102.021 67.6559 102.172 67.6332 102.321C67.5871 102.586 67.4478 102.827 67.24 103C67.0323 103.174 66.7695 103.268 66.4984 103.267Z" fill="#2B5743"/>
<path d="M67.9311 105.82C70.2036 105.82 72.0459 103.988 72.0459 101.728C72.0459 99.4674 70.2036 97.635 67.9311 97.635C65.6585 97.635 63.8162 99.4674 63.8162 101.728C63.8162 103.988 65.6585 105.82 67.9311 105.82Z" fill="#68BF7B"/>
<path d="M67.9312 106.949C66.8921 106.949 65.8763 106.643 65.0119 106.07C64.1474 105.496 63.4731 104.681 63.0739 103.727C62.6747 102.773 62.5685 101.722 62.7688 100.708C62.969 99.6939 63.4667 98.7615 64.199 98.0283C64.9314 97.2952 65.8656 96.7942 66.8839 96.5884C67.9021 96.3826 68.9589 96.4814 69.9208 96.8722C70.8827 97.263 71.7067 97.9284 72.2889 98.7844C72.8712 99.6404 73.1855 100.649 73.1923 101.682C73.1968 102.372 73.0641 103.056 72.8017 103.695C72.5393 104.334 72.1525 104.915 71.6635 105.404C71.1745 105.894 70.593 106.282 69.9525 106.548C69.3119 106.813 68.625 106.949 67.9312 106.949ZM67.9312 98.7751C67.3421 98.7752 66.7663 98.9495 66.2772 99.2761C65.788 99.6026 65.4076 100.066 65.1843 100.609C64.9611 101.151 64.905 101.747 65.0233 102.321C65.1416 102.895 65.429 103.421 65.8487 103.832C66.2685 104.243 66.8018 104.52 67.3806 104.629C67.9595 104.738 68.5578 104.673 69.0994 104.442C69.6409 104.212 70.1013 103.826 70.422 103.335C70.7426 102.843 70.9089 102.268 70.8998 101.682C70.8878 100.907 70.5697 100.168 70.0143 99.6237C69.4589 99.0798 68.7106 98.775 67.9312 98.7751Z" fill="#2B5743"/>
<path d="M85.9151 177.517C82.5681 177.517 63.9995 179.797 57.7871 178.201L57.9475 159.162L41.7974 160.964C41.7974 161.18 40.9722 167.336 40.7773 172.809C40.4793 181.929 42.3706 193.021 47.838 195.609C51.6205 197.399 81.6512 188.541 81.6512 188.541C81.6512 188.541 98.5921 195.632 99.085 188.541C99.5779 181.45 89.2505 177.517 85.9151 177.517Z" fill="#FFC9B0"/>
<path d="M49.4198 196.875C48.7153 196.913 48.0101 196.813 47.3451 196.578C41.1556 193.66 39.3216 181.895 39.6311 172.717C39.8145 167.587 40.5137 161.887 40.6512 160.793C40.6762 160.531 40.7914 160.286 40.9773 160.099C41.1632 159.912 41.4084 159.794 41.6714 159.767L57.8215 158.034C57.9823 158.016 58.1451 158.032 58.2992 158.081C58.4533 158.13 58.5952 158.211 58.7155 158.319C58.8336 158.428 58.9273 158.56 58.9905 158.707C59.0537 158.855 59.085 159.014 59.0823 159.174L58.9218 177.277C63.7817 178.132 74.1435 177.277 80.482 176.753C83.0839 176.536 84.9752 176.377 85.9036 176.377C90.3362 176.807 94.4829 178.748 97.6408 181.872C98.5257 182.738 99.2145 183.782 99.6613 184.934C100.108 186.086 100.302 187.32 100.231 188.552C100.207 189.222 100.017 189.876 99.6766 190.455C99.3366 191.034 98.8577 191.52 98.2827 191.87C94.0531 194.458 83.9436 190.627 81.5824 189.681C76.3786 191.209 56.5721 196.875 49.4198 196.875ZM42.829 161.944C42.5769 163.996 42.0725 168.602 41.9235 172.786C41.6255 181.655 43.5053 192.235 48.3309 194.515C50.4399 195.518 66.7619 191.665 81.3188 187.378C81.5706 187.288 81.8464 187.288 82.0982 187.378C86.4767 189.214 94.4199 191.516 97.0791 189.886C97.345 189.726 97.5648 189.5 97.7174 189.23C97.8699 188.961 97.9502 188.656 97.9503 188.347C97.991 187.425 97.8342 186.506 97.4904 185.649C97.1465 184.792 96.6235 184.017 95.9559 183.377C93.2294 180.723 89.6931 179.047 85.9036 178.611C85.0669 178.611 83.1298 178.782 80.6654 178.976C73.3297 179.58 62.2458 180.504 57.4776 179.25C57.2275 179.183 57.0076 179.034 56.8536 178.827C56.6996 178.62 56.6205 178.367 56.6294 178.11L56.7784 160.359L42.829 161.944Z" fill="#2B5743"/>
<path d="M59.8275 134.868V164.589H38.8748V134.868" fill="#68BF7B"/>
<path d="M59.8272 165.729H38.9204C38.6164 165.729 38.3248 165.609 38.1099 165.395C37.8949 165.181 37.7742 164.891 37.7742 164.589V134.868C37.7742 134.566 37.8949 134.276 38.1099 134.062C38.3248 133.848 38.6164 133.728 38.9204 133.728C39.2244 133.728 39.5159 133.848 39.7309 134.062C39.9458 134.276 40.0666 134.566 40.0666 134.868V163.449H58.7269V134.868C58.7269 134.566 58.8476 134.276 59.0626 134.062C59.2776 133.848 59.5691 133.728 59.8731 133.728C60.1771 133.728 60.4686 133.848 60.6836 134.062C60.8985 134.276 61.0193 134.566 61.0193 134.868V164.589C61.0194 164.742 60.9883 164.895 60.9279 165.036C60.8674 165.177 60.7789 165.305 60.6675 165.412C60.5562 165.518 60.4244 165.601 60.28 165.656C60.1356 165.71 59.9816 165.735 59.8272 165.729Z" fill="#2B5743"/>
<path d="M117.046 159.048C117.975 158.125 120.92 145.733 120.554 141.777C120.187 137.821 120.496 133.067 121.998 133.25C123.499 133.432 125.333 134.39 125.333 140.569C125.333 140.569 129.196 129.909 131.58 130.308C133.964 130.707 138.274 133.307 138.457 135.678C138.549 136.818 137.105 143.008 133.872 149.358C132.325 157.783 131.385 167.063 131.385 167.063L117.046 159.048Z" fill="#FFC9B0"/>
<path d="M131.397 168.237C131.2 168.232 131.008 168.182 130.835 168.089L116.473 160.04C116.324 159.956 116.195 159.84 116.097 159.7C115.999 159.56 115.934 159.399 115.906 159.231C115.879 159.062 115.89 158.89 115.938 158.726C115.987 158.562 116.071 158.411 116.186 158.285C116.931 157.145 119.751 145.642 119.407 141.88C119.293 140.648 118.811 134.39 120.622 132.645C120.818 132.449 121.055 132.3 121.318 132.209C121.58 132.118 121.86 132.088 122.135 132.121C124.061 132.349 125.322 133.58 125.964 135.894C127.683 132.075 129.758 128.838 131.775 129.168C134.319 129.59 139.363 132.406 139.603 135.575C139.718 137.091 138.056 143.555 135.019 149.757C133.517 158 132.589 167.12 132.577 167.211C132.556 167.399 132.489 167.578 132.38 167.733C132.272 167.889 132.127 168.015 131.958 168.1C131.787 168.197 131.593 168.244 131.397 168.237ZM118.536 158.57L130.445 165.25C130.801 162.161 131.591 155.412 132.738 149.187C132.76 149.085 132.795 148.985 132.841 148.891C135.003 144.77 136.508 140.339 137.3 135.758C137.174 134.173 133.609 131.79 131.374 131.414C130.503 131.711 128.118 136.168 126.388 140.956C126.296 141.208 126.118 141.42 125.884 141.554C125.651 141.688 125.378 141.736 125.112 141.69C124.847 141.644 124.606 141.506 124.433 141.301C124.26 141.096 124.164 140.837 124.164 140.569C124.164 135.359 122.846 134.583 122.089 134.424C121.677 135.199 121.333 138.083 121.665 141.674C121.986 144.844 120.003 154.865 118.536 158.57Z" fill="#2B5743"/>
<path d="M85.9036 196.487H144.739L155.375 154.044H96.5404L85.9036 196.487Z" fill="#E9FCC0"/>
<path d="M144.739 197.615H85.9152C85.7384 197.621 85.5629 197.585 85.4023 197.511C85.2417 197.438 85.1003 197.328 84.9893 197.192C84.8783 197.055 84.8007 196.894 84.7625 196.722C84.7242 196.551 84.7265 196.373 84.769 196.202L95.4058 153.759C95.4686 153.506 95.6165 153.282 95.8251 153.124C96.0336 152.966 96.2902 152.884 96.552 152.892H155.375C155.551 152.893 155.723 152.933 155.88 153.01C156.037 153.087 156.174 153.199 156.281 153.337C156.388 153.474 156.462 153.633 156.498 153.803C156.534 153.973 156.53 154.149 156.487 154.317L145.85 196.76C145.787 197.005 145.643 197.222 145.442 197.377C145.24 197.532 144.993 197.616 144.739 197.615ZM87.4282 195.335H143.902L153.966 155.172H97.4346L87.4282 195.335Z" fill="#2B5743"/>
<path d="M89.6289 196.487H148.464L159.101 154.044H100.266L89.6289 196.487Z" fill="#E9FCC0"/>
<path d="M148.464 197.615H89.6288C89.4521 197.621 89.2765 197.585 89.1159 197.511C88.9553 197.438 88.814 197.328 88.703 197.192C88.592 197.055 88.5143 196.894 88.4761 196.722C88.4379 196.551 88.4401 196.373 88.4826 196.202L99.1194 153.759C99.1822 153.506 99.3301 153.282 99.5387 153.124C99.7472 152.966 100.004 152.884 100.266 152.892H159.101C159.276 152.893 159.448 152.933 159.605 153.01C159.762 153.087 159.899 153.199 160.006 153.337C160.113 153.474 160.188 153.633 160.223 153.803C160.259 153.973 160.255 154.149 160.212 154.317L149.576 196.76C149.512 197.005 149.368 197.222 149.167 197.377C148.966 197.532 148.718 197.616 148.464 197.615ZM91.1533 195.335H147.627L157.691 155.172H101.16L91.1533 195.335Z" fill="#2B5743"/>
<path d="M59.8274 196.476V199.246C59.8274 200.298 60.2476 201.307 60.9957 202.051C61.7437 202.795 62.7583 203.213 63.8162 203.213H144.223C144.748 203.215 145.268 203.113 145.753 202.914C146.238 202.716 146.679 202.424 147.051 202.055C147.422 201.687 147.717 201.249 147.918 200.767C148.12 200.285 148.223 199.768 148.223 199.246V196.476H59.8274Z" fill="#E9FCC0"/>
<path d="M144.223 204.353H63.8162C62.4552 204.35 61.1509 203.811 60.1885 202.854C59.2262 201.897 58.6842 200.599 58.6812 199.246V196.475C58.6812 196.173 58.8019 195.883 59.0169 195.669C59.2318 195.456 59.5234 195.335 59.8274 195.335H148.223C148.527 195.335 148.819 195.456 149.034 195.669C149.248 195.883 149.369 196.173 149.369 196.475V199.246C149.366 200.601 148.823 201.9 147.858 202.858C146.893 203.815 145.586 204.353 144.223 204.353ZM60.9736 197.616V199.246C60.9736 199.996 61.273 200.715 61.8061 201.245C62.3392 201.775 63.0623 202.073 63.8162 202.073H144.223C144.978 202.073 145.702 201.776 146.237 201.246C146.772 200.716 147.074 199.997 147.077 199.246V197.616H60.9736Z" fill="#2B5743"/>
<path d="M59.8274 196.476V199.246C59.8274 200.298 60.2476 201.307 60.9957 202.051C61.7437 202.795 62.7583 203.213 63.8162 203.213H85.1357C86.3274 203.213 87.4702 202.742 88.3128 201.904C89.1555 201.066 89.6288 199.929 89.6288 198.744V196.464L59.8274 196.476Z" fill="#E9FCC0"/>
<path d="M85.1357 204.353H63.8162C62.4552 204.35 61.1509 203.811 60.1885 202.854C59.2262 201.897 58.6842 200.599 58.6812 199.246V196.475C58.6812 196.173 58.8019 195.883 59.0169 195.669C59.2318 195.456 59.5234 195.335 59.8274 195.335H89.6288C89.9328 195.335 90.2243 195.456 90.4393 195.669C90.6543 195.883 90.775 196.173 90.775 196.475V198.756C90.769 200.24 90.1725 201.662 89.1159 202.711C88.0593 203.76 86.6284 204.35 85.1357 204.353ZM60.9736 197.616V199.246C60.9736 199.996 61.273 200.715 61.8061 201.245C62.3392 201.775 63.0623 202.073 63.8162 202.073H85.1357C86.0233 202.073 86.8746 201.722 87.5023 201.098C88.13 200.474 88.4826 199.627 88.4826 198.744V197.604L60.9736 197.616Z" fill="#2B5743"/>
<path d="M130.755 146.998C130.451 146.998 130.159 146.878 129.944 146.664C129.729 146.451 129.609 146.161 129.609 145.858C129.483 142.016 125.7 141.697 125.276 141.674C124.972 141.661 124.686 141.528 124.481 141.304C124.275 141.081 124.168 140.785 124.181 140.483C124.195 140.181 124.329 139.896 124.554 139.692C124.778 139.488 125.075 139.381 125.379 139.394C127.086 139.417 128.718 140.095 129.933 141.287C131.149 142.479 131.854 144.093 131.901 145.79C131.901 146.092 131.78 146.382 131.565 146.596C131.35 146.81 131.059 146.93 130.755 146.93V146.998Z" fill="#2B5743"/>
<path d="M159.273 114.097C157.567 114.033 155.895 113.61 154.367 112.854C147.822 109.571 143.627 105.125 141.529 99.2653C140.83 97.6826 140.604 95.9335 140.876 94.2263C141.149 93.0783 141.698 92.0134 142.477 91.1237C143.256 90.2339 144.24 89.5459 145.346 89.119C145.61 88.9649 145.903 88.8684 146.208 88.836C146.512 88.8035 146.819 88.8358 147.11 88.9307C147.4 89.0256 147.667 89.1809 147.893 89.3864C148.118 89.5918 148.297 89.8426 148.418 90.1222L150.928 94.2035C151.107 94.4265 151.238 94.6828 151.316 94.9573C151.393 95.2318 151.414 95.5189 151.377 95.8016C151.341 96.0844 151.248 96.357 151.104 96.6033C150.96 96.8497 150.768 97.0648 150.538 97.236C149.931 97.8174 149.301 98.376 148.682 98.8434L148.59 98.9232C148.529 98.9649 148.478 99.0194 148.441 99.0828L148.773 99.5959C149.094 100.24 149.478 100.851 149.919 101.42C151.653 103.328 153.643 104.99 155.834 106.356L155.96 106.436L156.086 106.299C156.292 106.06 156.499 105.809 156.694 105.558C156.888 105.307 157.232 104.886 157.519 104.555C157.689 104.31 157.907 104.101 158.16 103.942C158.414 103.783 158.697 103.677 158.993 103.63C159.288 103.583 159.591 103.596 159.881 103.669C160.172 103.742 160.444 103.873 160.682 104.053L162.184 104.943C163.089 105.478 163.995 106.003 164.912 106.516C165.367 106.74 165.722 107.124 165.91 107.593C166.099 108.062 166.106 108.584 165.932 109.058C165.585 110.278 164.904 111.379 163.965 112.236C163.026 113.094 161.866 113.675 160.614 113.915C160.3 113.983 159.982 114.032 159.662 114.063H159.433L159.273 114.097ZM146.32 91.1596C145.537 91.4442 144.834 91.9149 144.275 92.5309C143.716 93.1468 143.316 93.8892 143.111 94.6937C142.948 95.9849 143.15 97.2957 143.696 98.4786C145.575 103.757 149.427 107.793 155.398 110.791C156.609 111.392 157.932 111.734 159.284 111.794H159.467C159.687 111.774 159.905 111.74 160.121 111.692C160.97 111.548 161.761 111.169 162.404 110.598C163.046 110.027 163.515 109.288 163.754 108.465C162.814 107.941 161.943 107.416 161.061 106.903L159.571 106.026L159.41 105.934L159.284 106.071C159.02 106.356 158.78 106.664 158.539 106.972C158.298 107.28 158.103 107.519 157.874 107.781C157.714 108.048 157.496 108.276 157.237 108.449C156.978 108.623 156.683 108.737 156.374 108.783C156.065 108.83 155.75 108.809 155.45 108.72C155.151 108.632 154.875 108.478 154.642 108.271C152.268 106.797 150.115 104.997 148.246 102.925C147.681 102.244 147.19 101.507 146.779 100.724L146.504 100.246C146.191 99.7514 146.081 99.1565 146.196 98.5838C146.311 98.0111 146.643 97.5042 147.123 97.1676L147.226 97.0878C147.833 96.5862 148.372 96.1074 148.945 95.5944L149.037 95.5145L148.957 95.3891C148.131 94.0211 147.306 92.6759 146.469 91.3192L146.32 91.1596Z" fill="#DFEAEF"/>
</svg>
